<svg xmlns="http://www.w3.org/2000/svg" xmlns:xlink="http://www.w3.org/1999/xlink" viewBox="0 0 537.42 503.61"><defs><style>.Graphic-Style-6{fill:url(#New_Gradient_Swatch_1);}</style><linearGradient id="New_Gradient_Swatch_1" x1="357.65" y1="495.52" x2="224.47" y2="-32.78" gradientUnits="userSpaceOnUse"><stop offset="0" stop-color="#4002e4"/><stop offset="1" stop-color="#7680f4"/></linearGradient></defs><g id="Layer_2" data-name="Layer 2"><g id="Layer_1-2" data-name="Layer 1"><path class="Graphic-Style-6" d="M323.29,393.51c.16-.25.31-.51.46-.76l.26-.46C323.78,392.7,323.54,393.11,323.29,393.51Zm-10.48,13.21L311.45,408c1.19-1.06,2.33-2.19,3.42-3.36-.36.38-.73.75-1.09,1.12Zm-7.52,6.2-.37.27c-.68.47-1.36.92-2.05,1.36l-.19.12c-.73.46-1.46.91-2.21,1.34-1.37.79-2.75,1.53-4.16,2.21A62.49,62.49,0,0,0,311.45,408l-.45.39A63.34,63.34,0,0,1,305.29,412.92ZM300.53,500a146.88,146.88,0,0,1-16.95,2.83A138.74,138.74,0,0,0,300.53,500Zm-37.91-75.75a65.71,65.71,0,0,1-12.05-2.37A62.5,62.5,0,0,0,262.62,424.25ZM198.5,485.13c1.67.95,3.37,1.86,5.07,2.72-2-1.05-4.07-2.16-6.07-3.31C197.84,484.73,198.16,484.94,198.5,485.13Zm334-379.4a142.61,142.61,0,0,0-251-49.84,4.16,4.16,0,0,0-.26,4.64c.31.51.61,1,.9,1.54l41.65,72.14a1.4,1.4,0,0,0,2.41,0l13.48-23.34A63.54,63.54,0,1,1,449.8,174.42l-49,85a8,8,0,0,0,0,8.05l7.49,13a160.09,160.09,0,0,1,20.38,60.7,161.71,161.71,0,0,1,1.21,22.71.89.89,0,0,0,1.66.47L518.29,214a142.31,142.31,0,0,0,14.24-108.22ZM406.46,397.88a142.57,142.57,0,0,1-14.22,34.4c-.14.24-.28.49-.43.73-.43.73-.86,1.47-1.31,2.2l-.39.65c-.53.85-1.07,1.69-1.61,2.53l-.09.13q-.87,1.34-1.77,2.67l-.3.44c-.49.71-1,1.41-1.48,2.11l-.47.67c-.62.86-1.25,1.72-1.89,2.57l0,0q-1.08,1.42-2.19,2.82c-.62.79-1.26,1.57-1.91,2.34l-.65.78c-.67.79-1.34,1.58-2,2.36l-.09.11c-.68.77-1.36,1.53-2.06,2.28l-.59.63c-.68.74-1.38,1.47-2.09,2.2l-.09.1c-.71.72-1.42,1.43-2.14,2.14l-.56.54c-.76.73-1.52,1.46-2.29,2.18l-.1.1c-.83.77-1.68,1.53-2.53,2.28-2.66,2.35-5.42,4.61-8.26,6.74A142.83,142.83,0,0,1,340,484.48q-6.11,3.52-12.48,6.42l-2.14.94-2.15.91-2.16.87c-.72.29-1.44.57-2.17.84-1.45.55-2.91,1.07-4.39,1.57l-1.92.63c-1.62.54-3.25,1-4.88,1.5l-1.9.53-1.32.34-1.74.44-2.23.53a146.88,146.88,0,0,1-16.95,2.83q-2.85.3-5.72.48c-1.3.09-2.61.15-3.92.2l-.51,0-1.57,0c-1.07,0-2.13,0-3.2,0s-2.07,0-3.1,0l-1.57,0-.52,0c-1.3-.05-2.61-.11-3.91-.2q-2.87-.18-5.72-.48a146.52,146.52,0,0,1-17-2.83c-.75-.17-1.49-.34-2.23-.53l-2-.5c-3.61-.93-7.17-2.05-10.71-3.25l-1.28-.46c-.72-.25-1.44-.52-2.16-.79l-.07,0c-.71-.26-1.42-.54-2.13-.82s-1.5-.6-2.25-.91-1.37-.57-2.06-.87l-2.36-1-1.9-.88q-2.1-1-4.19-2.07c-2-1.05-4.07-2.16-6.07-3.31l-.1-.06-.13-.08q-2.27-1.31-4.48-2.7a141.19,141.19,0,0,1-13.1-9.28q-2.77-2.21-5.43-4.56c-.85-.75-1.7-1.51-2.53-2.28l-.1-.1c-.77-.72-1.54-1.44-2.3-2.18-1.49-1.45-3-2.93-4.38-4.45l-1.4-1.5c-1.21-1.32-2.4-2.68-3.56-4.05l-1.26-1.5c-.51-.6-1-1.22-1.49-1.84-.23-.28-.46-.57-.68-.86-.43-.54-.85-1.07-1.26-1.62l-.77-1c-.21-.27-.42-.55-.62-.83-.79-1.08-1.57-2.18-2.34-3.29-.45-.65-.9-1.3-1.34-2-.88-1.32-1.76-2.65-2.6-4l-1.14-1.87c-.09-.13-.17-.27-.25-.41l-1.06-1.82A2.48,2.48,0,0,1,145,432a142.53,142.53,0,0,1,.2-142.31l4.48-7.75,10.69-18.52L210.84,176a1.76,1.76,0,0,1,3,0L257.23,251a2.74,2.74,0,0,1,0,2.74l-43.55,75.42a63.45,63.45,0,0,0-.27,63.1l.26.46c.15.25.29.51.46.76s.32.55.49.82.39.64.6.95.29.47.45.71c.28.43.57.85.87,1.28.1.16.22.32.34.48.23.35.48.7.75,1s.31.43.48.64c.35.48.71.94,1.09,1.4s.87,1.08,1.33,1.6.65.76,1,1.13.67.73,1,1.09a62.77,62.77,0,0,0,18.56,13.57l1.56.72c.55.24,1.09.48,1.64.7a57.86,57.86,0,0,0,6.27,2.24,62.5,62.5,0,0,0,12.05,2.37c.66.07,1.33.12,2,.16,1.36.09,2.7.13,4.05.13s2.77-.05,4.15-.13c.66,0,1.32-.1,2-.16a62.5,62.5,0,0,0,12.05-2.37c.68-.2,1.36-.42,2-.64s1.32-.45,2-.7,1.52-.57,2.27-.9c.55-.21,1.09-.45,1.63-.7s1.05-.47,1.56-.72A62.49,62.49,0,0,0,311.45,408c1.19-1.06,2.33-2.19,3.42-3.36.35-.36.69-.72,1-1.09s.68-.74,1-1.13.84-1,1.22-1.46a1.74,1.74,0,0,0,.22-.27c.41-.5.8-1,1.17-1.51s.73-1,1.08-1.48l.31-.44c.3-.42.59-.85.87-1.28.15-.23.31-.47.45-.71s.41-.63.6-.95.34-.55.49-.82.31-.51.46-.76l.26-.46a63.73,63.73,0,0,0,6.12-47.62,62.88,62.88,0,0,0-6.4-15.48L279.4,252.4l-10.69-18.52-45.65-79.07-10.69-18.52-14.69-25.42A63.55,63.55,0,1,0,87.61,174.42l47.87,82.9a12.13,12.13,0,0,1,0,12.14l-6.31,10.94a160.27,160.27,0,0,0-20.38,60.7l-2.52,20.55a.9.9,0,0,1-1.67.34L19.13,214a142.63,142.63,0,0,1,247-142.62l2.54,4.4,45.65,79.08,10.69,18.52,52,90.06,10.69,18.52,4.48,7.75a142.31,142.31,0,0,1,14.24,108.22Z"/></g></g></svg>