<svg xmlns="http://www.w3.org/2000/svg" xmlns:xlink="http://www.w3.org/1999/xlink" viewBox="0 0 43.38 40.73"><defs><linearGradient id="linear-gradient" x1="28.86" y1="40.08" x2="18.09" y2="-2.65" gradientUnits="userSpaceOnUse"><stop offset="0" stop-color="#ef006b"/><stop offset="1" stop-color="#fb9a61"/></linearGradient></defs><g id="Layer_2" data-name="Layer 2"><g id="Layer_1-2" data-name="Layer 1"><path d="M26.05,31.84l0-.06,0,0Zm-.84,1.07-.11.1.27-.27-.08.09Zm-.61.5,0,0-.17.11h0l-.18.11-.34.18A5.42,5.42,0,0,0,25.1,33l0,0Zm-.39,7a12.63,12.63,0,0,1-1.37.23A10.59,10.59,0,0,0,24.21,40.45Zm-3.06-6.13a4.72,4.72,0,0,1-1-.19A4.72,4.72,0,0,0,21.15,34.32ZM16,39.25l.41.22-.49-.27ZM43,8.56a11.53,11.53,0,0,0-20.31-4,.33.33,0,0,0,0,.37l.08.13,3.37,5.83a.1.1,0,0,0,.15,0,.08.08,0,0,0,0,0L27.38,9a5.14,5.14,0,0,1,8.91,5.14l-4,6.88a.68.68,0,0,0,0,.65l.61,1.05a12.81,12.81,0,0,1,1.65,4.91,14.18,14.18,0,0,1,.1,1.84.07.07,0,0,0,.07.07.07.07,0,0,0,.06,0l7-12.16A11.51,11.51,0,0,0,43,8.56ZM32.78,32.19A11.26,11.26,0,0,1,31.63,35l0,.06-.11.18,0,0-.13.21h0c0,.07-.09.14-.14.21l0,0c0,.06-.08.11-.11.17L31,36l-.16.21h0c-.05.08-.11.15-.17.23s-.1.13-.16.19l-.05.06-.16.19h0l-.17.19,0,0-.17.18h0l-.17.18-.05,0-.18.18h0l-.21.19q-.32.28-.66.54a12.15,12.15,0,0,1-1.21.81,10.62,10.62,0,0,1-1,.51l-.18.08-.17.07-.17.07L25.7,40l-.36.13-.15,0-.4.12-.15,0-.11,0-.14,0-.18,0a12.63,12.63,0,0,1-1.37.23l-.46,0H20.9l-.46,0a12.41,12.41,0,0,1-1.38-.23l-.18,0-.16,0q-.43-.12-.87-.27l-.1,0L17.57,40h0l-.17-.06-.19-.08-.16-.07-.19-.08-.16-.07-.34-.17-.49-.26h0L15.49,39a11.25,11.25,0,0,1-1.06-.75L14,37.86l-.2-.19h0l-.19-.17-.35-.36L13.13,37l-.29-.33-.1-.12-.12-.15-.06-.07-.1-.13-.06-.08-.05-.07-.19-.27a.91.91,0,0,1-.11-.16l-.21-.32-.09-.15a.05.05,0,0,1,0,0L11.64,35v0a11.52,11.52,0,0,1,0-11.51l.36-.63.87-1.5L17,14.24a.13.13,0,0,1,.19,0,.1.1,0,0,1,.05,0l3.51,6.07a.22.22,0,0,1,0,.22l-3.52,6.1a5.15,5.15,0,0,0,0,5.11l0,0,0,.06a.25.25,0,0,1,0,.07.22.22,0,0,1,0,.08l0,.05.07.11,0,0,.06.08,0,.05a.44.44,0,0,0,.08.11l.11.13.08.09.08.09a5,5,0,0,0,1.51,1.1l.12.06.13,0a5.27,5.27,0,0,0,.51.19,5.47,5.47,0,0,0,1,.19h1a5.47,5.47,0,0,0,1-.19l.16-.06.16,0,.19-.08.13,0,.12-.06A5.08,5.08,0,0,0,25.1,33l.27-.27.08-.09.09-.09.09-.12,0,0,.1-.12.08-.12,0,0,.07-.1L26,32l0-.08a.21.21,0,0,0,0-.06l0-.07,0,0a5.18,5.18,0,0,0,.5-3.85,5.32,5.32,0,0,0-.52-1.26L22.5,20.42l-.86-1.5L18,12.53,17.08,11,15.89,9A5.14,5.14,0,0,0,7,14.07l0,0,3.87,6.71a1,1,0,0,1,0,1l-.51.89A13.16,13.16,0,0,0,8.7,27.6l-.2,1.66s0,.07-.08.06a.09.09,0,0,1-.06,0l-6.91-12a11.54,11.54,0,0,1,20-11.54l.21.35,3.69,6.4.86,1.5,4.21,7.29.86,1.49.37.63a11.54,11.54,0,0,1,1.15,8.75Z" fill="url(#linear-gradient)"/></g></g></svg>