<svg xmlns="http://www.w3.org/2000/svg" viewBox="0 0 442.5 384.1"><g style="isolation:isolate"><g id="Layer_2" data-name="Layer 2"><g id="Layer_2-2" data-name="Layer 2"><path d="M419.76,310H47.9A332.92,332.92,0,0,1,1,163.25q-.24-3.09-.41-6.18a323.92,323.92,0,0,1,.1-39.29c.13-2.07.28-4.12.45-6.18l.18-2.11C3.49,84.86,8.74,59.83,22.22,39.1S58.69,2.58,83.41,3c24.48.42,45.74,15.81,68.14,25.7a160.24,160.24,0,0,0,121.76,2.58c17.29-6.78,33.28-16.55,50.53-23.43s36.67-10.77,54.38-5.18c31.83,10.06,47,46,54.28,78.56A425,425,0,0,1,419.76,310Z" fill="#f6a5c1"/><rect x="9.88" y="310.02" width="422.74" height="8.38" fill="#414156"/><rect x="290.25" y="105.03" width="54.66" height="76.31" fill="#ed4b82"/><rect x="290.25" y="186.34" width="54.66" height="53.23" fill="#ed4b82"/><rect x="290.25" y="45.24" width="54.66" height="54.78" fill="#ed4b82"/><rect x="349.91" y="105.03" width="54.66" height="76.31" fill="#ed4b82"/><rect x="349.91" y="186.34" width="54.66" height="53.23" fill="#ed4b82"/><rect x="349.91" y="45.24" width="54.66" height="54.78" fill="#ed4b82"/><path d="M363,100h22.65a28.13,28.13,0,0,0-29.79-42.11,31,31,0,0,0-3.34.92A21.62,21.62,0,0,1,363,100Z" fill="#fff"/><path d="M381.77,105H349.91v6a28.13,28.13,0,0,0,31.86-6Z" fill="#fff"/><path d="M344.91,105h-3.56a28.27,28.27,0,0,0,3.56,3.09Z" fill="#fff"/><path d="M333.53,87.75a28.9,28.9,0,0,0,.49,3.43A27.92,27.92,0,0,0,337.5,100h7.27A21.61,21.61,0,0,1,333.53,87.75Z" fill="#fff"/><path d="M319.6,57.07l.4-1.24.39,1.24A5.56,5.56,0,0,0,323,60.25h0a5.54,5.54,0,0,0-2.61,3.17L320,64.67l-.4-1.25A5.51,5.51,0,0,0,317,60.25h0A5.53,5.53,0,0,0,319.6,57.07Z" fill="#fff"/><path d="M373,134.25l.39-1.24.4,1.24a5.53,5.53,0,0,0,2.61,3.18h0a5.51,5.51,0,0,0-2.61,3.17l-.4,1.25L373,140.6a5.54,5.54,0,0,0-2.61-3.17h0A5.56,5.56,0,0,0,373,134.25Z" fill="#fff"/><path d="M387.41,158.53l.27-.84.26.84a3.71,3.71,0,0,0,1.76,2.13h0a3.73,3.73,0,0,0-1.76,2.14l-.26.84-.27-.84a3.73,3.73,0,0,0-1.76-2.14h0A3.71,3.71,0,0,0,387.41,158.53Z" fill="#fff"/><path d="M393.48,58.11l.26-.83.27.83a3.73,3.73,0,0,0,1.76,2.14h0A3.71,3.71,0,0,0,394,62.38l-.27.84-.26-.84a3.71,3.71,0,0,0-1.76-2.13h0A3.73,3.73,0,0,0,393.48,58.11Z" fill="#fff"/><path d="M389.43,212.64l.27-.84.26.84a3.71,3.71,0,0,0,1.76,2.13h0a3.73,3.73,0,0,0-1.76,2.14l-.26.83-.27-.83a3.68,3.68,0,0,0-1.75-2.14h0A3.66,3.66,0,0,0,389.43,212.64Z" fill="#fff"/><circle cx="209.25" cy="109.58" r="29.35" transform="translate(-26.67 97.94) rotate(-24.82)" fill="#ed4b82"/><circle cx="209.25" cy="109.58" r="23.63" transform="translate(68.87 299.55) rotate(-81.18)" fill="#fbe9ef"/><path d="M198.27,98.27a1.48,1.48,0,0,1,.95.34l11,9a1.5,1.5,0,0,1,.55,1.16v15.67a1.5,1.5,0,0,1-3,0v-15l-10.43-8.55a1.5,1.5,0,0,1,1-2.66Z" fill="#ed4b82"/><rect x="33.17" y="46.15" width="78.89" height="51.65" fill="#ed4b82"/><rect x="52.97" y="39.66" width="39.29" height="64.63" transform="translate(144.6 -0.64) rotate(90)" fill="#f6d4df"/><path d="M63.43,111.6v51.65H1q-.24-3.09-.41-6.18a323.92,323.92,0,0,1,.1-39.29c.13-2.07.28-4.12.45-6.18Z" fill="#ed4b82"/><path d="M56.3,117.78v39.29H.55a323.92,323.92,0,0,1,.1-39.29Z" fill="#f6d4df"/><path d="M137,163.64s10.85,3.37,12.67,4.5,29.93,89.49,29,93.76-8.76,15.74-10.56,17.32-11.92,3.37-13.72,2.92-15.07-11.92-15.07-11.92l-6.48-75.69Z" fill="#fff"/><polygon points="151.95 310.02 141.26 288.88 140.97 272.62 139.91 269.12 138.54 218.92 137.01 163.63 116.77 157.01 111.82 155.03 81.93 150.55 51.48 166 43.5 310.02 151.95 310.02" fill="#fff"/><polygon points="151.95 310.02 141.26 288.88 140.97 272.62 139.57 193.68 138.54 218.92 135.5 292.49 151.25 310.02 151.95 310.02" fill="#f2deda"/><path d="M89.54,154.83c.3.23,6.71,3.83,13.19,7.46H115c-.55-3.07-1.15-6.44-1.58-8.86-.31-1.75-.52-3-.56-3.28-.29-2.27.37-12.36.37-12.36l-25.56-7.91s.26,5,.6,10.57C88.67,147.13,89.2,154.57,89.54,154.83Z" fill="#ffa07f"/><path d="M88.26,140.45c7.34,4,23.48,12.74,25,13h.14c-.31-1.75-.52-3-.56-3.28-.29-2.27.37-12.36.37-12.36l-25.56-7.91S87.92,134.91,88.26,140.45Z" fill="#ff7d6f"/><path d="M84.46,131.15a11.61,11.61,0,0,0,3.84,3.7h0q.93.63,2.13,1.29c3.1,1.67,31.08,9.59,35.09,8.52s6-15.61,6.07-17.11c.14-9.23.13-37.68.13-37.68-14-29.19-47.92-8.74-51.62-5.22S84.46,131.15,84.46,131.15Z" fill="#ffa07f"/><path d="M102,125.18l18.4,2.08s-1.3,8.81-9.7,8.31S102,125.18,102,125.18Z" fill="#fff"/><path d="M88.3,134.85q.93.63,2.13,1.29c3.1,1.67,31.08,9.59,35.09,8.52s6-15.61,6.07-17.11c-1.74,6.49-3.51,15.39-6.44,15.49C120.74,143.2,91.74,136.13,88.3,134.85Z" fill="#ffbf90"/><path d="M130.49,101.9s-5.73-5.9-8.12-3-1.12,3-1.12,3Z" fill="#55062c"/><path d="M91.73,101.33s8.17-11.19,12.19-7.8c2.35,2,1,3.58,1,3.58Z" fill="#55062c"/><path d="M108.64,106.65a10.1,10.1,0,0,1-5.74,2.64,10.72,10.72,0,0,1-6.34-1.22c1.27,1.16,2.4,2.42,4.13,2.93a8.34,8.34,0,0,0,5.34-.14C107.68,110.19,108.44,108.24,108.64,106.65Z" fill="#161818"/><path d="M121.88,107.5a7.58,7.58,0,0,0,4.35,2,8,8,0,0,0,4.8-.92,8.23,8.23,0,0,1-3.12,2.22,6.24,6.24,0,0,1-4-.11A3.86,3.86,0,0,1,121.88,107.5Z" fill="#161818"/><path d="M126.57,119.67c.56,1.07,3,.88,5.43-.4s3.95-3.2,3.38-4.26-3-.88-5.42.41S126,118.61,126.57,119.67Z" fill="#ff7d6f"/><path d="M93.73,118.63c-.22,1.74,2.84,3.55,6.82,4.05s7.4-.5,7.61-2.24-2.83-3.56-6.82-4.06S94,116.89,93.73,118.63Z" fill="#ff7d6f"/><path d="M119.48,118.2a34.17,34.17,0,0,1-7.12,1.76,4.65,4.65,0,0,0,3.81,2.26,23.26,23.26,0,0,0,5.17-.67A15.47,15.47,0,0,1,119.48,118.2Z" fill="#ff7d6f"/><path d="M122.07,121.14c-3.1-4.18-4.52-9-5.46-14,0-.09-.16-.1-.17,0-.47,5.09,1.27,9.76,4,13.94-1.77.28-3.51.33-5.29.56a.47.47,0,0,0,0,.92,13.05,13.05,0,0,0,6.47-.37A.66.66,0,0,0,122.07,121.14Z" fill="#fc5b68"/><path d="M88.5,131.72a16.76,16.76,0,0,1-12.39-4.88,13.92,13.92,0,0,1-1.37-1.57c-1.92-2.62-3.64-12.37.08-15.17,2.6-2,5,.09,6.12,1.5h0a9.8,9.8,0,0,1,.79,1.08Z" fill="#ffbf90"/><path d="M88.5,131.72a16.76,16.76,0,0,1-12.39-4.88,8.8,8.8,0,0,1-.58-.73c-1.93-2.62-3.64-12.37.08-15.17,2.11-1.59,4-.54,5.33.66h0a9.8,9.8,0,0,1,.79,1.08Z" fill="#ffa07f"/><path d="M74.56,118.05a4.27,4.27,0,0,0,.49,2.36c1.52,3.14,5.14,5.23,8.58,7.15a8.4,8.4,0,0,1-1.77-5c0-.62,0-1.24,0-1.85C81.54,118.23,75.15,113.26,74.56,118.05Z" fill="#ff7d6f"/><path d="M85.34,128.3l-.2-.08c-.12-.06-.31-.12-.54-.24a7.28,7.28,0,0,1-1.74-1.2,6.38,6.38,0,0,1-1.61-2.45,5.44,5.44,0,0,1,0-3.51,2.85,2.85,0,0,1,.17-.46l0-.11s0,0,0,0h0v0l-.07-.09-.13-.17-.26-.34a14.85,14.85,0,0,0-1.13-1.23,15.33,15.33,0,0,0-1.16-1,9.46,9.46,0,0,0-1.11-.8,2.3,2.3,0,0,0-1.08-.32,1.61,1.61,0,0,0-.85.26.84.84,0,0,0-.34.4.37.37,0,0,0,0,.17.37.37,0,0,1,0-.18.8.8,0,0,1,.27-.49,1.79,1.79,0,0,1,.95-.44,2.87,2.87,0,0,1,1.4.21,9.19,9.19,0,0,1,1.34.72,14.44,14.44,0,0,1,1.36,1,13.7,13.7,0,0,1,1.3,1.24l.3.35.14.19.2.25.14.18a1.89,1.89,0,0,1-.09.21l-.12.3a3.25,3.25,0,0,0-.15.4,5.79,5.79,0,0,0-.11,3.13,6.74,6.74,0,0,0,1.15,2.39,7.85,7.85,0,0,0,1.39,1.36c.19.14.36.24.46.32Z" fill="#cf4a57"/><path d="M131.69,83.37V93.79L122.34,87l-8-5.8s-21.06,10-27.76,11.07v.09l-.71,24.85s-5.71-8.62-11.1-6.89l-5.73-4.77-1-.82s.09-4.81.59-10.69c.51-5.65,1.36-12.31,2.91-16.64h59.65A58.21,58.21,0,0,1,131.69,83.37Z" fill="#3f0727"/><path d="M83.63,112s2.46,22.25,3.43,24.12,33.39,10.66,36.26,11,7.42-5.4,7.17-5.49,1.1-14.1,1.1-14.1-2.62,10.39-3.67,10.9-16.34,1.09-16.34,1.09l-22.19-5.65-3.31-22.52Z" fill="#3f0727"/><path d="M109.1,77.37H71.6c-1.49,4.18-2.36,10.52-2.84,16-.56,6.15-.66,11.29-.66,11.29l1,.81a23.87,23.87,0,0,0,9.09-5.59l3.67,7.28A46.08,46.08,0,0,0,83,87.14,35.9,35.9,0,0,0,109.1,77.37Z" fill="#55062c"/><path d="M131.69,83.37v2.21a44.42,44.42,0,0,0-7.55-8.2h7.11A58.21,58.21,0,0,1,131.69,83.37Z" fill="#55062c"/><path d="M99.05,77.37H71.6c-1.49,4.18-2.36,10.52-2.84,16h0c3.48-.49,5.72-3.75,7.46-6.65.67,2,1.36,4,2,6.06a26.8,26.8,0,0,0,3.44-14.65A33.6,33.6,0,0,0,99.05,77.37Z" fill="#6f0a32"/><path d="M131.69,85.58,122.34,87,86.62,92.34,68.75,95s0-.37-.06-1-.06-1.8-.08-3.13c0-.77,0-1.64,0-2.56s0-1.85.09-2.85c0-.83.09-1.7.17-2.59.51-6.45,1.95-13.74,5.66-17.09,5.38-4.89,33.6-11.25,45.88-7.06,5.55,1.91,8.39,7.59,9.81,13.24.23.82.41,1.65.56,2.46.19,1,.34,2,.47,2.94l0,.33c.12.88.19,1.71.26,2.49.08,1.23.14,2.3.15,3.17C131.73,84.75,131.69,85.58,131.69,85.58Z" fill="#fff"/><path d="M131.54,80.2q-31.6,4.44-62.93,10.69c0-.77,0-1.64,0-2.56q31.15-6.22,62.67-10.62C131.4,78.59,131.47,79.42,131.54,80.2Z" fill="#f2deda"/><path d="M130.78,74.44q-31,5.5-62.08,11c0-.83.09-1.7.17-2.59L130.22,72C130.45,72.8,130.63,73.63,130.78,74.44Z" fill="#f2deda"/><path d="M160.86,235.06l-3.32,1.71-.1,0-5.76,2.92-5.07,2.59L143.47,236l-4-2.08c-2.63-1.87-16.71-28.74-15.24-30.14a11.06,11.06,0,0,1,1.32-1.11h0l.4-.29c.41-.28.81-.54,1.13-.74l.38-.25h0l.58-.35a22.29,22.29,0,0,1,1.27-2.06l.33-.49a8.17,8.17,0,0,1,.62-.78,2.62,2.62,0,0,1,.22-.25c.09-.11.2-.22.29-.31a2.28,2.28,0,0,1,1.68-.83c.52.06,1.92,1.38,3.65,3.21,4.29,4.51,10.61,12.13,10.81,11.42.28-1-9.1-20.74-9.1-20.74a4.32,4.32,0,0,1,.87-1.29,4.43,4.43,0,0,1,1.56-1c1.83-.73,19.21,25.74,19.21,25.74a22.35,22.35,0,0,1,6.74-13.18l.11-.11.06,0,.07,0A1.78,1.78,0,0,1,167,200a.43.43,0,0,1,.16-.05.55.55,0,0,1,.18,0l.19,0h0a.8.8,0,0,1,.26.16s.06,0,.06,0,0,0,0,.06a.6.6,0,0,1,.11.12,1.78,1.78,0,0,1,.22.26s.05,0,.06.09a1.26,1.26,0,0,1,.13.17c.08.14.17.29.24.44a5.43,5.43,0,0,1,.46,1.43c0,.15.06.32.09.49h0c0,.34,0,.66,0,1a4.36,4.36,0,0,1,0,.51c0,.23,0,.45-.08.68s-.08.48-.12.71h0c-.1.43-.22.86-.34,1.27s-.26.86-.4,1.28-.28.83-.4,1.25c-.06.22-.12.43-.19.64a18.64,18.64,0,0,0-.53,5.86c0,.72.08,1.44.14,2.15,0,.37.08.73.12,1.08s.08.73.13,1.09a10,10,0,0,1-1.86,6.12l0,0c-.19.3-.38.6-.58.88l-.32.45a4.46,4.46,0,0,1-.33.43c-.21.27-.42.55-.63.8-.33.4-.67.76-1,1.11-.18.18-.34.36-.49.52-1.26,1.31-2.24,2.13-2.24,2.13a.07.07,0,0,1,0,0C160.2,233.41,160.49,234.13,160.86,235.06Z" fill="#ffa07f"/><path d="M129.36,199c.31.48.63,1,1,1.44a49.13,49.13,0,0,0,5.71,6.67c1.52,1.47,2.59,2.33,2.72,2.43-.08-.14-.73-1.35-1.81-3.15s-2.77-4.53-4.72-7.29c-.47-.66-.94-1.3-1.39-1.92A11.62,11.62,0,0,0,129.36,199Z" fill="#cf4a57"/><path d="M125.59,202.7a51.51,51.51,0,0,0,6.49,7.8,51.52,51.52,0,0,0-4.57-9.09C127,201.71,126.31,202.17,125.59,202.7Z" fill="#cf4a57"/><path d="M160.86,235.06l-3.32,1.71-.23-.22a10.4,10.4,0,0,1-.5-1.39c0-.08,0-.15-.05-.23a3.07,3.07,0,0,1,0-1,5.21,5.21,0,0,1,1.51-2.79c2.3-2.64,4.89-5.19,6.06-8.5,1.37-3.9.51-8.24,1.15-12.33.44-3,1.67-5.93,1.18-8.9-.07-.35-.16-.71-.23-1.08l0-.05.07,0A1.78,1.78,0,0,1,167,200a.43.43,0,0,1,.16-.05.55.55,0,0,1,.18,0l.19,0h0a.81.81,0,0,1,.27.15.12.12,0,0,1,.05.05l.06,0s.07.07.11.11a3.4,3.4,0,0,1,.21.28s.05,0,.06.09a.81.81,0,0,1,.12.18,4.77,4.77,0,0,1,.25.43,5.43,5.43,0,0,1,.46,1.43h0a4.17,4.17,0,0,1,.08.49h0a6.77,6.77,0,0,1,0,1,4.36,4.36,0,0,1,0,.51c0,.23,0,.45-.08.68s-.08.48-.12.71h0c-.11.44-.22.86-.33,1.28s-.27.85-.41,1.27-.28.83-.4,1.25c-.06.22-.12.43-.19.64a18.64,18.64,0,0,0-.53,5.86c0,.72.08,1.44.14,2.15,0,.37.08.73.12,1.08s.07.72.11,1.07a10.07,10.07,0,0,1-1.84,6.14l0,0c-.19.3-.38.6-.58.88l-.32.45c-.1.15-.21.29-.32.43s-.44.53-.64.8-.67.76-1,1.11c-.18.18-.34.36-.49.52-1.26,1.31-2.24,2.13-2.24,2.13a.07.07,0,0,1,0,0C160.2,233.41,160.49,234.13,160.86,235.06Z" fill="#ff7d6f"/><path d="M72.62,155.27s6.25-9.15,7.94-10.51S102,150,102,150l5.2,8.9,4-7.17a43.45,43.45,0,0,1,5.65,1.68c.93.54,3.55,6.3,3.55,6.3s-7,9.69-12.22,10.17S72.62,155.27,72.62,155.27Z" fill="#f2deda"/><polygon points="105.29 167.91 108.64 196.39 112.36 196.39 111.2 166 105.29 167.91" fill="#f2deda"/><path d="M105.22,233.36l-4.38,1.83-3.9,6.35-5.1-3.19L86,234.73l-.09-.07-3.37-2.09c.49-1,.86-1.68,1-1.83l0-.05a32.06,32.06,0,0,1-2.16-2.44l-.48-.59L80,226.4l-.6-.91c-.1-.16-.2-.33-.31-.49s-.2-.33-.3-.49-.18-.32-.26-.49l-.27-.51h0a17.18,17.18,0,0,1-.86-2,13.61,13.61,0,0,1-.4-1.34,7.34,7.34,0,0,1-.13-3.32c.09-.36.16-.74.23-1.12s.15-.76.23-1.14c.12-.75.25-1.5.35-2.27a20.8,20.8,0,0,0,.09-5.46h0c0-.26-.08-.5-.12-.75s-.07-.4-.12-.62c0,0,0-.05,0-.07-.18-.91-.42-1.81-.61-2.73-.09-.45-.18-.92-.24-1.39a2.33,2.33,0,0,1,0-.37c0-.13,0-.27,0-.4s0-.47,0-.71a9.78,9.78,0,0,1,.14-1.53,5.63,5.63,0,0,1,.14-.59,5.29,5.29,0,0,1,.92-1.91,4,4,0,0,1,.27-.31l.21-.21s0-.05.06-.06l.06-.05.07-.06a.08.08,0,0,1,0,0h0l.29-.14a.61.61,0,0,1,.4,0,.69.69,0,0,1,.17.05,1.75,1.75,0,0,1,.27.16,2.5,2.5,0,0,1,.24.22.1.1,0,0,1,.07.06s0,0,0,.05h0l.11.12A23.75,23.75,0,0,1,86,210.11s20.74-26.32,22.62-25.38a4.71,4.71,0,0,1,1.54,1.23,4.65,4.65,0,0,1,.81,1.45s-11.71,20-11.52,21c.15.77,7.52-6.69,12.46-11.06,2-1.78,3.6-3,4.14-3a2.35,2.35,0,0,1,1.69,1c.1.12.19.23.28.36s.19.24.28.36a10.82,10.82,0,0,1,.67,1.08,1.35,1.35,0,0,1,.15.26h0a22.25,22.25,0,0,1,1.15,2.29l.59.41c.48.36,1.2.91,1.92,1.54v0a12.07,12.07,0,0,1,1.3,1.27C125.48,204.58,108.17,231.64,105.22,233.36Z" fill="#ffa07f"/><path d="M119.12,197.43c-.37.47-.75.95-1.15,1.43a52,52,0,0,1-6.64,6.51c-1.74,1.41-2.94,2.22-3.09,2.31.1-.14.89-1.35,2.19-3.15s3.35-4.53,5.66-7.26c.55-.65,1.11-1.28,1.64-1.89A12.08,12.08,0,0,1,119.12,197.43Z" fill="#cf4a57"/><path d="M122.76,201.68a55.23,55.23,0,0,1-7.56,7.63,53.63,53.63,0,0,1,5.66-9.17C121.33,200.5,122.05,201.05,122.76,201.68Z" fill="#cf4a57"/><path d="M87.06,231.8a3.47,3.47,0,0,1-.14,1c0,.08,0,.15-.07.23a12.32,12.32,0,0,1-.66,1.42l-.25.2-3.37-2.09c.49-1,.86-1.68,1-1.83l0-.05a32.06,32.06,0,0,1-2.16-2.44l-.48-.59L80,226.4l-.6-.91c-.1-.16-.2-.33-.31-.49s-.2-.33-.29-.49-.19-.32-.27-.49l-.27-.51h0a17.18,17.18,0,0,1-.86-2,13.61,13.61,0,0,1-.4-1.34,8,8,0,0,1-.12-3.33c.08-.37.15-.75.22-1.11s.15-.76.23-1.14c.12-.75.25-1.5.35-2.27a25.1,25.1,0,0,0,.22-2.73,17.83,17.83,0,0,0-.13-2.73h0c0-.26-.08-.5-.13-.75s-.06-.4-.11-.62c0,0,0-.05,0-.07-.18-.91-.42-1.81-.61-2.73-.09-.45-.18-.92-.24-1.39a2.33,2.33,0,0,1,0-.37c0-.14,0-.27,0-.4s0-.49,0-.7a7.88,7.88,0,0,1,.15-1.54,5.63,5.63,0,0,1,.14-.59,5.29,5.29,0,0,1,.92-1.91,4,4,0,0,1,.27-.31,1.37,1.37,0,0,1,.19-.22l.08,0,.06-.06a.15.15,0,0,1,.07-.05.08.08,0,0,1,0,0h0l.29-.14a.61.61,0,0,1,.4,0,.69.69,0,0,1,.17.05,1.75,1.75,0,0,1,.27.16,1.73,1.73,0,0,1,.24.23l.07,0s0,0,0,.05c-.12.39-.25.76-.34,1.13-.8,3.09.22,6.32.43,9.5.29,4.36-1,8.85.06,13.11.93,3.59,3.43,6.52,5.61,9.52A5.42,5.42,0,0,1,87.06,231.8Z" fill="#ff7d6f"/><path d="M51.48,166s-14,6.49-15.1,9.82S22,268.4,24.24,272.34,39,297,42.62,297.88s26.44-.9,30.79-4.5,23.53-51.84,23.53-51.84l-21.7-14.27Z" fill="#fff"/><path d="M77.3,227.87l24,16.19-27,50.78s-10.57,4.84-13,5.18-14.73-1.91-14.73-1.91,13.19.34,14,0,12.12-5.51,12.12-5.51l24.36-47.79-18.4-10.15L59.16,260.25l-11.69,1.8,9.6-4.19-10.35-4.65,10.5-.15s6.63-51.43,7.06-54.05S57,180.34,57,180.34,69.36,198,69.51,199s-7.5,51.5-7.5,51.5Z" fill="#f2deda"/><polygon points="140.46 243.68 142.29 249.76 167.47 236.77 165.22 232.06 140.46 243.68" fill="#f2deda"/><polygon points="56.03 54.26 34.62 42.51 44.4 33.06 56.03 54.26" fill="#fff"/><polygon points="56.75 62.16 42.89 68.74 41.24 60.46 56.75 62.16" fill="#fff"/><polygon points="65.89 50.11 60.71 34.67 68.26 32.89 65.89 50.11" fill="#fff"/><polygon points="267.56 72.23 251.91 53.49 264.46 48.26 267.56 72.23" fill="#fff"/><polygon points="265.36 79.86 250.06 80.94 251.53 72.62 265.36 79.86" fill="#fff"/><polygon points="278.26 71.96 279.06 55.69 286.74 56.78 278.26 71.96" fill="#fff"/><path d="M220.89,222.67s-6.54,34.08-5.45,37.8,19,23.14,22,22.7,32.29-19.23,32.29-19.23l1.76-95.9s-14.93,3.69-16.46,6.09S243,222.6,243,222.6Z" fill="#456997"/><polygon points="362.3 310.15 257.01 310.15 267.39 289.63 270.03 221.71 271.52 168.03 291.16 161.6 295.98 159.68 324.99 155.33 354.55 170.33 362.3 310.15" fill="#456997"/><path d="M300.66,184.25s-1.93,88.32-2.09,125.9h-5.44C293.19,284.57,293.89,193.76,300.66,184.25Z" fill="#254f79"/><path d="M354.55,170.33s13.57,6.3,14.66,9.54,14,89.87,11.79,93.7S350.9,294,347.25,294s-24.77-6.78-28.07-11.15-10.6-54.25-10.6-54.25L332.27,220Z" fill="#456997"/><path d="M226.65,219.4l3.55.76.11,0,6.14,1.28,5.4,1.14,1.36-6.69,3.18-3c2-2.41,8.4-31.16,6.67-32.1a14.13,14.13,0,0,0-1.52-.71h0l-.46-.17c-.45-.16-.89-.3-1.24-.41l-.42-.14h0c-.39-.12-.64-.18-.64-.18a20.48,20.48,0,0,0-1.71-1.61l-.44-.38a8,8,0,0,0-.77-.57l-.27-.18-.36-.22a2.17,2.17,0,0,0-1.78-.35c-.47.18-1.45,1.78-2.6,3.93-2.88,5.32-6.88,14-7.25,13.44-.51-.85,3.29-21.74,3.29-21.74a4.28,4.28,0,0,0-1.15-1A4.41,4.41,0,0,0,234,170c-1.91-.22-11.49,29-11.49,29a21.82,21.82,0,0,0-9.66-10.65l-.13-.07-.07,0-.07,0a1.77,1.77,0,0,0-.57-.17.43.43,0,0,0-.16,0,.57.57,0,0,0-.18,0,1.29,1.29,0,0,0-.16.09h0a1.11,1.11,0,0,0-.21.22s0,0,0,.06l0,.06a.9.9,0,0,0-.07.14c-.06.1-.09.2-.14.3a.19.19,0,0,0,0,.1,1.19,1.19,0,0,0-.08.2,3.59,3.59,0,0,0-.12.47,5.39,5.39,0,0,0-.07,1.45c0,.16,0,.32,0,.49h0c.06.32.13.63.22,1,0,.15.09.31.15.47l.25.61c.1.21.19.43.29.64h0c.21.37.42.74.64,1.1s.46.74.7,1.09l.7,1.08a6.16,6.16,0,0,0,.33.55,18,18,0,0,1,2,5.36c.16.68.29,1.37.41,2.05.07.35.11.7.17,1s.11.7.15,1.05a9.59,9.59,0,0,0,3.29,5.26l0,0c.26.23.52.47.77.68s.28.23.42.34l.41.32c.27.2.54.41.8.59.41.29.82.55,1.19.8.22.12.42.25.6.36,1.51.9,2.63,1.43,2.63,1.43a.1.1,0,0,0,0,0C226.86,217.68,226.77,218.43,226.65,219.4Z" fill="#ffa07f"/><path d="M247.05,177.63c-.17.52-.34,1.06-.54,1.59a48,48,0,0,1-3.66,7.7c-1,1.76-1.84,2.84-1.93,3,0-.15.33-1.44.89-3.4s1.45-5,2.58-8c.28-.74.55-1.46.82-2.15A10.84,10.84,0,0,1,247.05,177.63Z" fill="#cf4a57"/><path d="M251.53,180.14a50.29,50.29,0,0,1-4.11,9,50,50,0,0,1,2-9.68C249.93,179.58,250.72,179.82,251.53,180.14Z" fill="#cf4a57"/><path d="M226.65,219.4l3.55.76.16-.27a9.51,9.51,0,0,0,.12-1.43c0-.07,0-.15,0-.22a2.84,2.84,0,0,0-.19-.91,5,5,0,0,0-2.12-2.24c-2.82-1.89-5.89-3.63-7.83-6.44-2.27-3.31-2.57-7.59-4.19-11.26-1.18-2.67-3.07-5.13-3.36-8,0-.35,0-.71-.06-1.07l-.06,0-.07,0a1.77,1.77,0,0,0-.57-.17.43.43,0,0,0-.16,0,.57.57,0,0,0-.18,0,1.29,1.29,0,0,0-.16.09h0a.84.84,0,0,0-.21.21.16.16,0,0,0,0,.07s0,0,0,.06a.35.35,0,0,1-.08.13L211,189a.19.19,0,0,0,0,.1,1.29,1.29,0,0,0-.07.21,3.47,3.47,0,0,0-.13.46,5.39,5.39,0,0,0-.07,1.45h0a3.93,3.93,0,0,0,.06.48h0a5.54,5.54,0,0,0,.22,1c0,.15.09.31.15.47l.25.61c.1.21.19.43.29.64h0c.21.38.42.74.63,1.11s.47.73.71,1.08l.7,1.08a6.16,6.16,0,0,0,.33.55,18,18,0,0,1,2,5.36c.16.68.29,1.37.41,2.05.07.35.11.7.17,1s.11.68.16,1a9.7,9.7,0,0,0,3.28,5.29l0,0c.26.23.52.47.77.68s.28.23.42.34l.4.33c.28.19.55.38.81.58.41.29.82.55,1.19.8.22.12.42.25.6.36,1.51.9,2.63,1.43,2.63,1.43a.1.1,0,0,0,0,0C226.86,217.68,226.77,218.43,226.65,219.4Z" fill="#ff7d6f"/><polygon points="247.96 222.31 247.78 228.47 220.89 222.67 221.81 217.68 247.96 222.31" fill="#254f79"/><polygon points="245.88 225.61 245.88 254.55 247.78 228.47 245.88 225.61" fill="#254f79"/><path d="M299.63,67.93s-17.08,7-21.32,11.94-7.38,35.56-6.79,46.29c0,0-8.64,36.64-8.13,44.17,0,0,25.68,21,44.56,21.3s52-18.56,52-18.56L343.55,144.5c-1-1.71-4.26-16.66-4.26-18.36s6.66-30.22,5.62-34.31-20.24-24.2-28.17-25.78S299.63,67.93,299.63,67.93Z" fill="#424242"/><path d="M324.46,87.32c-9.37-10.72-25.07-13.94-37.39-6.82C284.23,82.13,282,84,281,86c-4.07,8.18-9.88,38.28-3.64,52.75s16.06,12.49,19.56,11.47,19.94-7.87,23.74-13.23,11.95-33,10.13-40.24C330.14,94.38,327.59,90.89,324.46,87.32Z" fill="#ffbf90"/><path d="M325.58,85.15c-9.37-10.72-25.07-13.94-37.39-6.82-2.84,1.63-5.1,3.49-6.12,5.54-4.07,8.18-9.88,38.28-3.64,52.75s16.06,12.49,19.56,11.47,19.94-7.87,23.74-13.23,11.95-33,10.13-40.24C331.26,92.21,328.71,88.72,325.58,85.15Z" fill="#ffa07f"/><path d="M294.09,122.9a5.08,5.08,0,0,1,2.25-.15,7.29,7.29,0,0,1-4.63,3,.89.89,0,0,1-.43,0,1,1,0,0,1-.45-.27,8.6,8.6,0,0,1-2-2.67,1.69,1.69,0,0,1-.2-.65c0-.76.44-.5.83-.25a6.69,6.69,0,0,0,1.48.7A6.9,6.9,0,0,0,294.09,122.9Z" fill="#ff7d6f"/><path d="M291.64,125.31c-.36-.48-.79-.91-1.17-1.39a12.22,12.22,0,0,1-1.23-1.86c2.67-1.16,3.12-3.61,3.55-6.42a8.22,8.22,0,0,0-.32-3.78,7.74,7.74,0,0,0-.85-1.82,8.27,8.27,0,0,0-.59-.83,2.86,2.86,0,0,0-.73-.61c.12.19.18.41.28.6a16.51,16.51,0,0,1,.73,1.53,10.46,10.46,0,0,1,.46,1.66,10.07,10.07,0,0,1,.06,3.42,8.38,8.38,0,0,1-1.16,3.15,6.57,6.57,0,0,1-2.94,2.58s1.24,2.18,1.37,2.36a8.71,8.71,0,0,0,1.12,1.31,2.94,2.94,0,0,0,1.46.93.9.9,0,0,0,.54,0,2,2,0,0,1-.23-.27,1,1,0,0,1-.08-.14Z" fill="#fc5b68"/><path d="M306.4,129.73a23.38,23.38,0,0,1-19.26,1.39,15.83,15.83,0,0,0,10.1,3.26C300.93,134.15,303.64,132.21,306.4,129.73Z" fill="#fc5b68"/><path d="M300.66,136.15a9,9,0,0,1-8.18.52,5,5,0,0,0,4,2C298,138.7,299.68,137.41,300.66,136.15Z" fill="#ff7d6f"/><path d="M278.31,101s4.34-3.33,7.05-3.06,3.51,2.75,2.44,3.24S278.31,101,278.31,101Z" fill="#424242"/><path d="M316.57,105.31S310.34,99.8,306.14,99s-5.78,1.64-4.2,2.63S316.57,105.31,316.57,105.31Z" fill="#424242"/><path d="M305.49,124.47c.17,1.29,3.06,2,6.47,1.53s6-1.84,5.86-3.13-3.06-2-6.47-1.53S305.33,123.18,305.49,124.47Z" fill="#ff7d6f"/><path d="M272.37,117.78c-.43.88,1.4,2.64,4.08,3.91s5.19,1.58,5.61.69-1.4-2.64-4.08-3.91S272.79,116.89,272.37,117.78Z" fill="#ff7d6f"/><path d="M313.89,109a5.74,5.74,0,0,1-3.24,1.87,2.42,2.42,0,0,0-1.61-1.24c-1.7-.32-3.48,1.63-4,4.36s.46,5.18,2.15,5.49,3.48-1.64,4-4.36a7.52,7.52,0,0,0,.07-2.4C312.76,111.87,313.89,109,313.89,109Z" fill="#161818"/><path d="M308.13,115a5.56,5.56,0,0,0,3.33.58,5.5,5.5,0,0,0,2.88-1.75,4.81,4.81,0,0,0-6.21,1.17Z" fill="#fff"/><path d="M281.87,108.6a4.3,4.3,0,0,0,2.14,1.82,1.79,1.79,0,0,1,1.36-.71c1.29,0,2.35,1.67,2.36,3.74s-1,3.77-2.32,3.78-2.35-1.67-2.36-3.75a5.59,5.59,0,0,1,.26-1.78A6.89,6.89,0,0,1,281.87,108.6Z" fill="#161818"/><path d="M285.34,113.73A3.6,3.6,0,0,1,280.9,112a3.63,3.63,0,0,1,4.44,1.69Z" fill="#fff"/><path d="M278.31,92.66s30.51-1.47,53.12,11.47L331,92.51s-14.21-16.41-22.87-16.9S288,78.39,286.36,79.7s-6.56,6.89-6.56,6.89Z" fill="#fff"/><path d="M275.69,93.63s11-16.06,25.82-13.11S335.35,109,335.35,109l2.07-14.44S321.38,72,316.57,72H300.66s-22.37,8.2-22.35,11.15S275.69,93.63,275.69,93.63Z" fill="#424242"/><path d="M302.59,219.06l3.73,2.71,2.26,6.86,5.53-1.87,6.3-2.11.1,0,3.65-1.23c-.25-1-.43-1.77-.48-1.94v-.05a29.83,29.83,0,0,0,2.58-1.82l.59-.45,1.15-1,.78-.72.39-.39.4-.4c.12-.14.24-.26.36-.41l.36-.41h0a16.61,16.61,0,0,0,1.25-1.68,10.74,10.74,0,0,0,.68-1.17,7.21,7.21,0,0,0,.87-3.11q0-.56,0-1.11c0-.38,0-.75,0-1.13.05-.74.1-1.47.18-2.22a20.33,20.33,0,0,1,1.14-5.18h0c.08-.24.19-.45.28-.68s.16-.37.26-.56c0,0,0,0,0-.07.39-.81.81-1.6,1.2-2.43.18-.41.37-.83.54-1.26a3.59,3.59,0,0,0,.12-.35c0-.11.07-.24.11-.36a5.54,5.54,0,0,0,.18-.67,9.11,9.11,0,0,0,.22-1.48c0-.2,0-.4,0-.59a5.31,5.31,0,0,0-.45-2,2.09,2.09,0,0,0-.19-.36c0-.08-.09-.15-.14-.23s0-.06-.05-.07a.15.15,0,0,0,0-.07l0-.07s0,0,0-.06h0a2.31,2.31,0,0,0-.24-.2.66.66,0,0,0-.39-.08h-.16l-.3.1a1.91,1.91,0,0,0-.28.15.09.09,0,0,0-.07,0l-.06,0h0l-.13.09A23.11,23.11,0,0,0,326,201.4s-13.69-29.51-15.68-29.05a4.72,4.72,0,0,0-1.73.82,4.63,4.63,0,0,0-1.09,1.19s6.59,21.48,6.17,22.45c-.32.7-5.61-8-9.3-13.23-1.48-2.13-2.71-3.68-3.22-3.81a2.31,2.31,0,0,0-1.83.59l-.34.28a3.07,3.07,0,0,0-.35.28,11.77,11.77,0,0,0-.87.86,1,1,0,0,0-.2.22h0a19.21,19.21,0,0,0-1.59,1.9l-.66.26c-.53.23-1.33.59-2.15,1v0a11.75,11.75,0,0,0-1.52.91C289.91,187.33,300.19,216.76,302.59,219.06Z" fill="#ffa07f"/><path d="M297.52,182c.24.53.49,1.07.77,1.61a49.89,49.89,0,0,0,4.81,7.64c1.32,1.72,2.28,2.76,2.39,2.88-.05-.16-.53-1.48-1.36-3.47-.88-2.14-2.14-5-3.71-8.12-.38-.75-.76-1.47-1.13-2.16A11.64,11.64,0,0,0,297.52,182Z" fill="#cf4a57"/><path d="M293.12,185.19a53,53,0,0,0,5.44,8.91,52.9,52.9,0,0,0-3.29-9.93C294.74,184.4,293.94,184.76,293.12,185.19Z" fill="#cf4a57"/><path d="M320.09,221.65a3.58,3.58,0,0,0-.09,1l0,.23a11.71,11.71,0,0,0,.3,1.5l.19.25,3.65-1.23c-.25-1-.43-1.77-.48-1.94v-.05a29.83,29.83,0,0,0,2.58-1.82l.59-.45,1.15-1,.78-.72.39-.39.39-.4c.12-.14.25-.26.37-.41l.36-.41h0a16.61,16.61,0,0,0,1.25-1.68,10.74,10.74,0,0,0,.68-1.17,7.77,7.77,0,0,0,.86-3.13c0-.36,0-.73,0-1.09s0-.75,0-1.13c.05-.74.1-1.47.18-2.22a25.66,25.66,0,0,1,.4-2.63,16.17,16.17,0,0,1,.74-2.55h0l.29-.68c.08-.18.15-.37.25-.56,0,0,0,0,0-.07.39-.81.81-1.6,1.2-2.43.18-.41.37-.83.54-1.26a3.59,3.59,0,0,0,.12-.35c0-.13.08-.24.12-.36s.12-.46.18-.66a7.53,7.53,0,0,0,.21-1.49c0-.2,0-.4,0-.59a5.31,5.31,0,0,0-.45-2,2.09,2.09,0,0,0-.19-.36,1.12,1.12,0,0,0-.13-.24.17.17,0,0,0-.06-.06l0-.08-.05-.06s0,0,0-.06h0a2.31,2.31,0,0,0-.24-.2.66.66,0,0,0-.39-.08h-.16l-.3.1a1.33,1.33,0,0,0-.28.16l-.07,0-.06,0c0,.39.07.77.07,1.13.06,3.1-1.63,5.92-2.53,8.88-1.26,4.06-1,8.59-3,12.37-1.69,3.19-4.71,5.39-7.44,7.74A5.29,5.29,0,0,0,320.09,221.65Z" fill="#ff7d6f"/><path d="M330.19,220.13,303.87,230l14.17,54s8.9,6.93,11.16,7.81,14.34,1.5,14.34,1.5-12.54-2.64-13.19-3.13l-10.21-7.93-12.3-50.59,19.66-5.47,12.57,28.52,10.64,4.32L342.59,253l10.81-2.08-9.88-2.49s5.26-50.07,5.44-52.64,11-16,11-16-15.6,13.95-16,14.84-4.47,50.33-4.47,50.33Z" fill="#254f79"/><path d="M266.53,186l1.09,16.38s-7.21,17-8.3,24.91,10,21.22,10,21.22l-1.91,41.17L257,310.15l15.29-19.33,2.27-43.7s-10-15.88-10.23-18.65,6.56-25.92,6.56-25.92Z" fill="#254f79"/><path d="M157.24,359.31a236.37,236.37,0,0,1-66.36,9.76,236.37,236.37,0,0,1-66.36-9.76,236.37,236.37,0,0,1,66.36-9.76A236.37,236.37,0,0,1,157.24,359.31Z" fill="#c8dcf2"/><path d="M378.63,359.8a189.46,189.46,0,0,1-104.31,0,189.46,189.46,0,0,1,104.31,0Z" fill="#c8dcf2"/><path d="M33.15,327.4s5.54,26.23,13.68,30.51,34.61,8.88,46.35,8.27,31.23-3.12,42.27-7.4,15.64-31.38,15.64-31.38Z" fill="#ffac00"/><path d="M33.15,327.4s50.88-21.63,117.94,0C151.09,327.4,108,353.14,33.15,327.4Z" fill="#ffcf00"/><path d="M140.26,327.68a69,69,0,0,1-14.06,4.64c-2.83.67-6.06,1.32-9.7,1.85s-7.75,1-12.23,1.23-9.22.3-14.4.09c-.78,0-1.57-.06-2.37-.11h-.09q-3.75-.21-7.75-.61c-2.83-.28-5.74-.65-8.75-1.1-4.57-.69-9.35-1.58-14.33-2.71l-2.09-.49q-5.12-1.22-10.51-2.79A89.24,89.24,0,0,1,53.66,325l1.92-.43A166,166,0,0,1,75,321.71c3.63-.32,7.52-.55,11.66-.65l1.77,0,2,0H92.3c1.28,0,2.58,0,3.89.06,1.75.05,3.53.13,5.35.24q3.52.19,7.2.55c4,.38,8,.91,12.23,1.6,2,.32,4,.68,6,1.09l1.35.28q4.89,1,10,2.33Z" fill="#e18300"/><path d="M108.31,290.81a4.65,4.65,0,0,0-4.3,2.68c-1,2.2-.11,4.88-1,7.13a9.23,9.23,0,0,1-2.8,3.39,108.93,108.93,0,0,1-9.33,7.22L93.62,317c-.21-.44,7.3-5.1,8.07-5.49,2.22-1.12,4.71-3.12,7.35-2.77,1,.14,1.94.61,2.95.81A5.53,5.53,0,1,0,111,299a5.21,5.21,0,0,0,1.39-5.19A4.66,4.66,0,0,0,108.31,290.81Z" fill="#fff0e7"/><path d="M107,295.41a2.86,2.86,0,0,0,1.08-.74,2.68,2.68,0,0,0,.69-1,1.23,1.23,0,0,0-.19-1.16,1.74,1.74,0,0,0-1.8-.22c-.86.26-1.87.85-1.74,1.89A1.47,1.47,0,0,0,107,295.41Z" fill="#fff"/><path d="M104.3,303.7a5.71,5.71,0,0,0,2.57-6c-.11-.49-.39-1.05-.89-1.1a1,1,0,0,0-.92.66,4.08,4.08,0,0,0-.2,1.2,6,6,0,0,1-1.77,3.71c-.37.36-1.16,1-.7,1.61S103.82,304,104.3,303.7Z" fill="#fff"/><path d="M104.86,316.54a16.6,16.6,0,0,0-3.09.91,17.37,17.37,0,0,0-7.65,6,20.1,20.1,0,0,0-1.25,2c-1.46,2.64-2.5,5.53-4.14,8.07,0,0,0,0,0,0a17.27,17.27,0,0,1-1.25,1.7l-.06.07q-3.75-.21-7.75-.61c-2.83-.28-5.74-.65-8.75-1.1-4.57-.69-9.35-1.58-14.33-2.71l-2.09-.49a14,14,0,0,1-.83-5.45c0-.23,0-.47.05-.7a19.66,19.66,0,0,1,10.47-15.46,17.06,17.06,0,0,1,9.67-2c4,.61,7.68,3.55,11.89,3.25l.49-.05a10.45,10.45,0,0,0,6-3.37,29.94,29.94,0,0,0,4.14-6.2,6.47,6.47,0,0,1-.89,6.18c1-.27,1.56-1.38,2.27-2.18s1.89-1.1,2.48-.5a.75.75,0,0,1,.2.28,2,2,0,0,1-.41,1.79l-2.51,4.06a13.52,13.52,0,0,1,7.2-2.9,15.7,15.7,0,0,1-3.2,4.33s0,.06-.06.06A15.13,15.13,0,0,1,98.35,314a7.5,7.5,0,0,1,1.06,0h0A8,8,0,0,1,104.86,316.54Z" fill="#cc521c"/><path d="M104.86,316.54a16.6,16.6,0,0,0-3.09.91,17.37,17.37,0,0,0-7.65,6,20.1,20.1,0,0,0-1.25,2c-1.46,2.64-2.5,5.53-4.14,8.07,0,0,0,0,0,0a17.27,17.27,0,0,1-1.25,1.7l-.06.07q-3.75-.21-7.75-.61a23.82,23.82,0,0,0,2.86-3.41,25.58,25.58,0,0,0,4.17-10.3,26.07,26.07,0,0,0-.46-11,10.45,10.45,0,0,0,6-3.37,29.94,29.94,0,0,0,4.14-6.2,6.47,6.47,0,0,1-.89,6.18c1-.27,1.56-1.38,2.27-2.18s1.89-1.1,2.48-.5a.75.75,0,0,1,.2.28,2,2,0,0,1-.41,1.79l-2.51,4.06a13.52,13.52,0,0,1,7.2-2.9,15.7,15.7,0,0,1-3.2,4.33s0,.06-.06.06A15.13,15.13,0,0,1,98.35,314a7.5,7.5,0,0,1,1.06,0h0A8,8,0,0,1,104.86,316.54Z" fill="#af3e15"/><path d="M75,321.71A20.09,20.09,0,0,1,73.48,330a12.26,12.26,0,0,1-2.57,3.69c-4.57-.69-9.35-1.58-14.33-2.71a7.5,7.5,0,0,1-.45-1.16,15.43,15.43,0,0,1-.55-5.21,17.73,17.73,0,0,1,3.63-9.78,12,12,0,0,1,6.3-4.4,7.51,7.51,0,0,1,7.22,1.88c1.77,1.91,2.16,4.69,2.27,7.3C75,320.29,75.05,321,75,321.71Z" fill="#e26b29"/><path d="M63.3,322.49c3-2,6.66-6.61,3.4-8.89-1.17-.82-2.81-.21-4,.62-1.88,1.34-4.12,3.91-4.73,6.17-.68,2.52,1.1,3.52,3.36,3A6.3,6.3,0,0,0,63.3,322.49Z" fill="#ff8f50"/><path d="M81.37,314.84a1.81,1.81,0,0,0,1.74-.63,1.47,1.47,0,0,0,0-1.31,3.39,3.39,0,0,0-.83-1.06,4.39,4.39,0,0,0-2-1.15,2.06,2.06,0,0,0-2.09.66C77,313.08,80.05,314.71,81.37,314.84Z" fill="#af3e15"/><path d="M74.07,311.37a2.06,2.06,0,0,0,2.57-.42,1.28,1.28,0,0,0,.1-1.33,1.6,1.6,0,0,0-.95-.67,2,2,0,0,0-1.76.2,1.39,1.39,0,0,0-.33,1.92A1.52,1.52,0,0,0,74.07,311.37Z" fill="#af3e15"/><path d="M146.66,302.65a4.65,4.65,0,0,0-4.72,1.81c-1.39,2-1.05,4.78-2.35,6.82a9.26,9.26,0,0,1-3.39,2.79,105.94,105.94,0,0,1-10.54,5.3l1.6,6.17c-.12-.47,8.14-3.61,9-3.85,2.39-.67,5.21-2.16,7.74-1.31,1,.32,1.79,1,2.74,1.35a5.53,5.53,0,1,0,1.06-10.55,5.18,5.18,0,0,0,2.35-4.83A4.63,4.63,0,0,0,146.66,302.65Z" fill="#fff0e7"/><path d="M144.5,306.92a3,3,0,0,0,1.21-.52,2.62,2.62,0,0,0,.86-.86,1.19,1.19,0,0,0,0-1.17,1.74,1.74,0,0,0-1.72-.56c-.9.08-2,.47-2.07,1.52A1.47,1.47,0,0,0,144.5,306.92Z" fill="#fff"/><path d="M140.27,314.54a5.71,5.71,0,0,0,3.67-5.41c0-.5-.18-1.1-.66-1.25a1,1,0,0,0-1,.48,4.08,4.08,0,0,0-.41,1.14,6.06,6.06,0,0,1-2.45,3.3c-.43.29-1.34.8-1,1.45S139.75,314.73,140.27,314.54Z" fill="#fff"/><path d="M136,321.78a16,16,0,0,1-3.48,1.7,7.92,7.92,0,0,1,5.84,3.69l.06.09A17.31,17.31,0,0,0,126.5,332l-.3.29c-2.83.67-6.06,1.32-9.7,1.85s-7.75,1-12.23,1.23-9.22.3-14.4.09c-.78,0-1.57-.06-2.37-.11l0-.07a14.5,14.5,0,0,1-.79-10.17A19,19,0,0,1,88.46,321,19.24,19.24,0,0,1,93,315.65,18.85,18.85,0,0,1,99.9,312q.76-.22,1.59-.39h.08a16.12,16.12,0,0,1,8.2.3c3.84,1.37,6.87,4.95,11.06,5.46l.49,0a10.49,10.49,0,0,0,6.51-2.16,30.28,30.28,0,0,0,5.25-5.3,6.49,6.49,0,0,1-2.05,5.89c1.06-.07,1.79-1.06,2.64-1.71s2.07-.71,2.54,0a1,1,0,0,1,.14.32c.15.62-.32,1.21-.75,1.68l-3.23,3.51a13.43,13.43,0,0,1,7.62-1.48,16.33,16.33,0,0,1-4,3.68Z" fill="#cc521c"/><path d="M136,321.78a16,16,0,0,1-3.48,1.7,7.92,7.92,0,0,1,5.84,3.69l.06.09A17.31,17.31,0,0,0,126.5,332l-.3.29c-2.83.67-6.06,1.32-9.7,1.85a26.17,26.17,0,0,0,4.47-10.7,25.52,25.52,0,0,0,.35-6.11,10.49,10.49,0,0,0,6.51-2.16,30.28,30.28,0,0,0,5.25-5.3,6.49,6.49,0,0,1-2.05,5.89c1.06-.07,1.79-1.06,2.64-1.71s2.07-.71,2.54,0a1,1,0,0,1,.14.32c.15.62-.32,1.21-.75,1.68l-3.23,3.51a13.43,13.43,0,0,1,7.62-1.48,16.33,16.33,0,0,1-4,3.68Z" fill="#af3e15"/><path d="M108.74,321.87a21.71,21.71,0,0,1-.26,2.68,22.64,22.64,0,0,1-3.47,9.92,10.77,10.77,0,0,1-.74.93c-4.42.24-9.22.3-14.4.09a10.29,10.29,0,0,1-1.14-1.9A8.09,8.09,0,0,1,88,331a17.47,17.47,0,0,1,5.88-14.13,12.66,12.66,0,0,1,5.52-2.91h0a9.36,9.36,0,0,1,1.49-.2,7.49,7.49,0,0,1,6.73,3.21A8.68,8.68,0,0,1,108.74,321.87Z" fill="#e26b29"/><path d="M96.44,325.17c3.38-1.39,7.8-5.21,5-8.08-1-1-2.72-.74-4-.15-2.1,1-4.79,3.05-5.82,5.16-1.14,2.34.41,3.66,2.73,3.6A6.41,6.41,0,0,0,96.44,325.17Z" fill="#ff8f50"/><path d="M115.64,321.11a1.81,1.81,0,0,0,1.83-.29,1.46,1.46,0,0,0,.27-1.28,3.35,3.35,0,0,0-.62-1.2,4.36,4.36,0,0,0-1.71-1.51,2.07,2.07,0,0,0-2.17.25C111.65,318.54,114.37,320.73,115.64,321.11Z" fill="#af3e15"/><path d="M109.13,316.31a2.08,2.08,0,0,0,2.61.08,1.28,1.28,0,0,0,.35-1.29,1.55,1.55,0,0,0-.81-.84,2,2,0,0,0-1.76-.14,1.41,1.41,0,0,0-.69,1.83A1.48,1.48,0,0,0,109.13,316.31Z" fill="#af3e15"/><path d="M401.18,329.55a36.51,36.51,0,0,1-31.49,0,36.6,36.6,0,0,1,31.49,0Z" fill="#c8dcf2"/><path d="M371.21,295.06l3.61,33.06s3.41,2.87,10.62,2.87,10.61-2.87,10.61-2.87l3.61-33.06Z" fill="#f3f8ff"/><path d="M396.26,300.93l-2.61,23.61s-2.64,2.19-8.22,2.19-8.21-2.19-8.21-2.19l-2.62-23.61Z" fill="#ed4b82"/><path d="M393.65,324.54s-2.64,2.19-8.22,2.19-8.21-2.19-8.21-2.19A28.1,28.1,0,0,1,393.65,324.54Z" fill="#ed4b82" opacity="0.5" style="mix-blend-mode:multiply"/><path d="M378.63,316.8s-8.46,51.22-59.4,44.9c-31.13-3.87-47.87-44.9-47.87-44.9Z" fill="#b36c3d"/><path d="M271.37,316.8s46.27-32.51,107.26,0C378.63,316.8,339.48,355.48,271.37,316.8Z" fill="#eaa87c"/><path d="M370.51,317a37.55,37.55,0,0,1-5.44,4.06c-.75.48-1.57,1-2.46,1.48-12.07,6.86-37.6,15.74-74.08-1l-1.63-.76,0,0c-2.41-1.15-4.86-2.4-7.37-3.78a63,63,0,0,1,10.83-5.44c1.57-.63,3.29-1.27,5.16-1.88.53-.18,1.08-.35,1.64-.52,13.38-4.14,33.51-6.89,57.29,1,.83.28,1.67.57,2.51.88,1.72.61,3.44,1.28,5.18,2Q366.26,314.85,370.51,317Z" fill="#9c5e34"/><path d="M365.07,321.1c-.75.48-1.57,1-2.46,1.48-12.07,6.86-37.6,15.74-74.08-1l-1.63-.76,0,0s-.74-4.25,2.89-3.41a15.52,15.52,0,0,1,.57-5.81,2.72,2.72,0,0,1,2.36-2,12.36,12.36,0,0,1,2.8.14c1.1.21,1.26.56,1.26.56s.14-.42.38-1.08c.79-2.16,2.66-6.84,4.38-7.59,2.23-1,3.07-.7,3.07-.7s1-9,3.92-9.93a4.11,4.11,0,0,1,4.48.84s5.87-6.42,8.66-6.85,6.72,4.33,6.72,4.33,1.95-1.95,3.63-1.53,4.61,6.15,4.61,6.15,1-2.1,2.66-1.68,3.36,5,3.36,5,1.82-1.82,2.8-1.12,2.45,6.73,2.45,6.73,1.46-1.53,2.3,0c.59,1.07,2.93,5.07,4.25,7.33l.93,1.6s.69-.36,1.58-.72c1.25-.49,2.89-1,3.59-.4a7.69,7.69,0,0,1,1.59,2.41A64.46,64.46,0,0,1,365.07,321.1Z" fill="#fff0e7"/><path d="M346.74,303.62a2.05,2.05,0,0,0-2.56-.17,6.11,6.11,0,0,0-1.78,2.12,6.41,6.41,0,0,0,0-2.89c-.2-.54-1.24-1.32-1.79-.66a1.84,1.84,0,0,0-.36-2.58,2.58,2.58,0,0,0-2.8,0,4.49,4.49,0,0,0-1.77,2.31c-.64-2.12-1.27-4.24-1.91-6.37a3.84,3.84,0,0,0-.71-1.53,1.35,1.35,0,0,0-1.53-.43.89.89,0,0,0-.35,1.19c-1.05-1-5-4.2-5.45-2.81-.15.43.33,1.23.58,1.53a13.39,13.39,0,0,0-5.43-3c-1-.28-3.77-1.27-2.4.84a5.51,5.51,0,0,0,1.79,1.74c-1-.6-3.09-.08-4.09.28-1.16.41-4.39,2.24-1.44,2.4a4,4,0,0,0-2.32,3.54c0-.35-4.35,1.44-4.7,1.67-.69.45-3.64,2.62-3.32,3.59s2.23-.38,2.59-.69a12,12,0,0,0-4.1,7.06c-.22-.93-.28-2-1.34-1.13a5.3,5.3,0,0,0-1.31,1.82c-.38.85-1.07,3-.42,3.91-.72-1-.8-2.57-2.27-2a6.34,6.34,0,0,0-2.21,1.7,4.06,4.06,0,0,0-1.15,2.56,2.22,2.22,0,0,0,1.51,2.19,1.53,1.53,0,0,0,1.87-1.55c-.17,1.23,1.23,2.24,2.46,2.08a4.58,4.58,0,0,0,2.92-2.13,18.49,18.49,0,0,1,2.17-3,3.49,3.49,0,0,0,1.28,2.35c.79.47,2.13-.16,1.87-1a11.11,11.11,0,0,0,5.39,5.9,4,4,0,0,0,3,.46,3.34,3.34,0,0,0,2-3.29,9.86,9.86,0,0,0-1.23-3.87,5.17,5.17,0,0,0,2.74,2.52c1.23.31,2.78-.9,2.26-2.06a5.88,5.88,0,0,0,2.52,2.34,2.67,2.67,0,0,0,1.61.43c.82-.2.52-.76.74-1.43a15.4,15.4,0,0,0,4.48,3.63,2.68,2.68,0,0,0,2,.36,2.06,2.06,0,0,0,1.13-2.36,5.63,5.63,0,0,0-1.25-2.33,8.68,8.68,0,0,0,3.94,1.54,2.1,2.1,0,0,0,.9.06.73.73,0,0,0,.61-.58c0-.31-.29-.62-.57-.5a5.42,5.42,0,0,1,1.33,0,10.16,10.16,0,0,0,2.2-.24c1.75-.42,1.5-1.76-.1-2.54,1.28.62,3.38-1,4.12-1.89.55-.62,1-1.12.3-1.82-.13-.15-1.08-.86-1.27-.6a11.29,11.29,0,0,0,1.94-4.36A2.71,2.71,0,0,0,346.74,303.62Z" fill="#fff"/><path d="M348.87,313.24c.22-.24.58-.48.85-.29a.69.69,0,0,1,.18.67,6.06,6.06,0,0,1-1.44,3.36c-.85,1-1.13-.34-1-1A5.76,5.76,0,0,1,348.87,313.24Z" fill="#fff"/><path d="M327.47,324c.24.22.47.58.29.85a.73.73,0,0,1-.68.19,6.18,6.18,0,0,1-3.36-1.45c-1-.84.35-1.13,1-1A5.76,5.76,0,0,1,327.47,324Z" fill="#fff"/><path d="M344.77,325.53c.24.22.48.57.29.84s-.43.22-.67.19a6.24,6.24,0,0,1-3.36-1.44c-1-.85.34-1.13,1-1A5.73,5.73,0,0,1,344.77,325.53Z" fill="#fff"/><path d="M354.66,316.55c.24.22.48.58.3.85a.73.73,0,0,1-.68.19,6.18,6.18,0,0,1-3.36-1.45c-1-.85.34-1.13,1-1A5.73,5.73,0,0,1,354.66,316.55Z" fill="#fff"/><path d="M360.43,317.17c.32-.07.75-.06.86.25s-.07.47-.23.66a6.2,6.2,0,0,1-3.12,1.91c-1.27.32-.73-.93-.22-1.43A5.72,5.72,0,0,1,360.43,317.17Z" fill="#fff"/><path d="M306.17,319.91c.32-.07.75-.06.86.25s-.07.47-.23.66a6.2,6.2,0,0,1-3.12,1.91c-1.27.32-.73-.93-.22-1.43A5.72,5.72,0,0,1,306.17,319.91Z" fill="#fff"/><path d="M311.62,323.85c.29.16.6.45.48.75s-.37.31-.61.34a6.18,6.18,0,0,1-3.61-.64c-1.15-.6.08-1.18.79-1.21A5.65,5.65,0,0,1,311.62,323.85Z" fill="#fff"/><path d="M343.27,320.64a2.22,2.22,0,0,0,.93.5,4.46,4.46,0,0,0,2.35.06,1.15,1.15,0,0,0,.72-.44,1.09,1.09,0,0,0-.32-1.22,3.19,3.19,0,0,0-2.87-.76C343.19,318.94,342.42,319.79,343.27,320.64Z" fill="#fff"/><path d="M337.1,322.21c.4-.24,1-.4,1.29,0s.13.84-.11,1.2a6.94,6.94,0,0,1-2.37,1.95,1.6,1.6,0,0,1-.52.22c-1.1.19-.22-1.27,0-1.62A5,5,0,0,1,337.1,322.21Z" fill="#fff"/><path d="M207.75,332.44a36.48,36.48,0,0,1-31.48,0,36.48,36.48,0,0,1,31.48,0Z" fill="#c8dcf2"/><path d="M177.79,298l3.6,33.06s3.42,2.86,10.62,2.86S202.63,331,202.63,331l3.6-33.06Z" fill="#f3f8ff"/><path d="M202.84,303.81l-2.61,23.61s-2.64,2.19-8.22,2.19-8.21-2.19-8.21-2.19l-2.62-23.61Z" fill="#ed4b82"/><path d="M200.23,327.42s-2.64,2.19-8.22,2.19-8.21-2.19-8.21-2.19A28.1,28.1,0,0,1,200.23,327.42Z" fill="#ed4b82" opacity="0.5" style="mix-blend-mode:multiply"/><path d="M294.47,375.6a253.74,253.74,0,0,1-130.25,0,254,254,0,0,1,130.25,0Z" fill="#c8dcf2"/><path d="M156.66,355.12s8,21.77,68.69,21.41,68.7-21.41,68.7-21.41Z" fill="#f41"/><path d="M294.05,355.12a287.08,287.08,0,0,1-137.39,0,287.42,287.42,0,0,1,137.39,0Z" fill="#ff8400"/><path d="M285,355.12s-2.46.57-6.81,1.37a302.9,302.9,0,0,1-52.86,4.84,303.67,303.67,0,0,1-53-4.87c-4.24-.78-6.63-1.34-6.63-1.34s2.27-.53,6.31-1.27a291.23,291.23,0,0,1,106.45-.05C282.65,354.57,285,355.12,285,355.12Z" fill="#f76c00"/><path d="M278.59,352l-.15,1.81c-.08.9-.16,1.79-.23,2.69a302.9,302.9,0,0,1-52.86,4.84,303.67,303.67,0,0,1-53-4.87c-.14-.87-.24-1.74-.32-2.61a37.87,37.87,0,0,1-.11-4.88c0-1.14.23-2.45,1.19-3.07a3.1,3.1,0,0,1,3.31.46,14.15,14.15,0,0,0,2.92,2c.52-1.63,1.35-3.73,1.87-5.36a2.91,2.91,0,0,1,.93-1.61c.9-.62,2.12-.06,3,.54a33.91,33.91,0,0,1,6.64,5.73,2.78,2.78,0,0,1,5.27-1.38,80.45,80.45,0,0,1,4.23-9.72,4.14,4.14,0,0,1,2-2.29c1.19-.41,2.47.3,3.51,1a42.33,42.33,0,0,1,4.62,3.73c1-1.26,2.76-2.51,4.38-2.28a4.82,4.82,0,0,1,2.73,2l3.69,4.31a4.23,4.23,0,0,1,3.43-2.88,3.52,3.52,0,0,1,3.52,2,22.66,22.66,0,0,1,4.35-5.56,4.08,4.08,0,0,1,2-1.29,3.07,3.07,0,0,1,2.69,1,9.13,9.13,0,0,1,1.58,2.5,10,10,0,0,1,2.34-1.58,3.36,3.36,0,0,1,2.66-.61,4.88,4.88,0,0,1,2.43,2A61.8,61.8,0,0,1,251.6,345c.6-1.2,2.82-2,4.15-1.86a3.34,3.34,0,0,1,2.77,2.55,14.42,14.42,0,0,1,3.33-3.15,3.62,3.62,0,0,1,3.76-.19c1.18.77,1.56,2.3,1.84,3.69.81-1.05,2.88-1.24,4.08-.66a3,3,0,0,1,1.56,3.33,8.53,8.53,0,0,1,2.16-1,2.81,2.81,0,0,1,2.3.32C278.71,348.88,278.71,350.57,278.59,352Z" fill="#70a400"/><path d="M207.33,354.42c-2.37-3.57-6.24-7.9-11-6.93-.26-1.11-.56-2.21-.89-3.27-.67-2.13-1.36-4.76-3.46-5.93s-3.78.3-4.92,1.85a32.19,32.19,0,0,0-3.86,6.51c-3.38-1.21-6.23,2.79-7.62,5.4-.17.31.3.54.48.25a12.15,12.15,0,0,1,2.79-3.64,3.77,3.77,0,0,1,3.77-.51,13.33,13.33,0,0,0,0,9c.15.39.76.61,1,.21,1.2-1.75,2.58-3.72,2.61-5.92a5.09,5.09,0,0,0-2-4.23c.38-.84.8-1.64,1.23-2.39a24.4,24.4,0,0,1,3.22-4.86,2.19,2.19,0,0,1,2.72-.63,4.72,4.72,0,0,1,1.6,2.49,45.66,45.66,0,0,1,1.47,5.66c.05.19.09.39.13.58a5.33,5.33,0,0,0-2.82,4c-.24,1.79.53,3.89,2.38,4.51,2.18.74,3.22-1.5,3.08-3.32a36.47,36.47,0,0,0-.63-4.35c4.25-.84,7.56,3.16,10.1,6C207.08,355.18,207.55,354.75,207.33,354.42Zm-24.05,1.08a10.19,10.19,0,0,1,.36-6.55C185.09,350.77,184.23,353.43,183.28,355.5Zm12.2-.56c-.19.23-.86.13-1.07,0a1.52,1.52,0,0,1-.49-.42,3,3,0,0,1-.57-2.19,3.83,3.83,0,0,1,1.67-2.78,27.76,27.76,0,0,1,.57,4.12C195.6,354,195.69,354.69,195.48,354.94Z" fill="#648900"/><path d="M224.84,356a2.82,2.82,0,0,1-3.78-.07,3.53,3.53,0,0,1-1-2,12.26,12.26,0,0,0,2.4-1.45c2.26-1.72,3.94-4.15,3-7a.4.4,0,0,0-.49-.28,8.64,8.64,0,0,0-5.7,7.39,5.86,5.86,0,0,1-2.59.47c-3.47-.24-4.13-4.32-4-7.49.41-.29.79-.58,1.12-.85a15.65,15.65,0,0,0,4.9-6.26c.66-1.63.37-4.32-2-4s-3.76,3.71-4.51,5.63a19.6,19.6,0,0,0-1.15,4.7,5.78,5.78,0,0,1-2.4.95c-2.66.27-1.59-4.25-1.27-5.69a22.74,22.74,0,0,1,2.62-6.51.8.8,0,0,0-1.38-.81,19.6,19.6,0,0,0-3.19,8.2c-.31,2-.71,5.33,1.73,6.26a4.68,4.68,0,0,0,3.77-.51c0,3.25.89,6.41,3.84,7.66a6.23,6.23,0,0,0,4.65-.06,3.93,3.93,0,0,0,2.16,2.84,2.84,2.84,0,0,0,3.62-.83C225.31,356,225,355.83,224.84,356ZM215,337.85c.39-.64,1.19-2.1,2.05-2.19,1.36-.15.4,2,.1,2.52a19.27,19.27,0,0,1-3.55,4.53l-.65.58A16.31,16.31,0,0,1,215,337.85Zm5.17,13.74a8,8,0,0,1,4.62-5.47c.28,1.82-1.4,3.63-2.68,4.71a11.14,11.14,0,0,1-2.05,1.38C220.07,352,220.11,351.79,220.15,351.59Z" fill="#648900"/><path d="M257.74,345.18a12.24,12.24,0,0,0-2.76,1.1,34.87,34.87,0,0,0,.22-4.2c0-2.16-.14-4.76-1.77-6.39s-4.2-1.38-6-.12a12.87,12.87,0,0,0-3.91,5.54c-1.4-3.73-3.91-8.32-7.28-5.22-1.8,1.65-2.7,4.49-3.12,6.83,0,.27-.06.55-.1.83a2.17,2.17,0,0,0-1.13.13c-2.76,1-1.71,4.31-.77,6.23.18.37.71,0,.54-.32a7.17,7.17,0,0,1-.86-3.06,2.41,2.41,0,0,1,.74-1.67,1.28,1.28,0,0,1,1.36-.3,16.83,16.83,0,0,0,.5,5.38c.35,1.34,1.61,6.24,3.75,5.4.82-.33.93-1.31.86-2.07a18.56,18.56,0,0,0-1.51-5.13c-.48-1.17-1.25-3.26-2.5-4.18a14.13,14.13,0,0,1,.49-2.48,10,10,0,0,1,2.59-4.75c2.69-2.29,4.69,3.35,5.62,6.55a22.35,22.35,0,0,0-1.16,6.83c0,1.43-.15,5,1.66,5.63,1.54.5,2.16-1.58,2.28-2.69a23.48,23.48,0,0,0-.93-8.74c-.08-.29-.18-.65-.31-1.05l.17-.48A17.8,17.8,0,0,1,247,338c1.18-1.44,3.44-2.83,5.15-1.35,1.23,1.07,1.35,3,1.38,4.52a40.94,40.94,0,0,1-.17,5.86c0,.11,0,.22-.05.33a12.45,12.45,0,0,0-4.72,7.48c-.3,1.54.34,4.17,2.49,3.36a3.34,3.34,0,0,0,1.68-2,29.86,29.86,0,0,0,1.36-4.83c.23-1.08.42-2.18.59-3.29a12.3,12.3,0,0,1,3.32-1.71A.61.61,0,0,0,257.74,345.18Zm-21.65,5.7c.13.46,1,2.53.66,2.87-.49.55-1.46-1.64-1.6-1.95a14.68,14.68,0,0,1-1.21-5.26c0-.35,0-.7,0-1.05A22.27,22.27,0,0,1,236.09,350.88Zm8.28-.17a17.23,17.23,0,0,1,.37,2.77,1.82,1.82,0,0,1-.2,1.15l-.11.22-1.35-.11c-.14-.12-.2-.56-.23-.74a17.91,17.91,0,0,1,.18-5.84c.1-.71.25-1.42.41-2.12C243.81,347.58,244.09,349.15,244.37,350.71Zm7.58,3.2c-.16.52-.31,1.06-.51,1.56s-.41,1.19-1,1c-.92-.29-.28-2,0-2.65a11.74,11.74,0,0,1,2.63-4.22A42.44,42.44,0,0,1,252,353.91Z" fill="#648900"/><path d="M275.29,350.08a12.45,12.45,0,0,0-2.53-6.19c-.67-.87-1.64-2-2.88-1.74a2.08,2.08,0,0,0-1.4,2.3,10.18,10.18,0,0,0,3.35,6.39c.68.64,1.7-.37,1-1a10.29,10.29,0,0,1-2.52-3.91,4.41,4.41,0,0,1-.39-1.82c.11-1.09,1.07,0,1.4.42a11.5,11.5,0,0,1,2.16,4.27,6.83,6.83,0,0,1,.12,4.12c-.76,1.73-2.92.51-4.1,0-.77-.35-1.53-.73-2.27-1.16a11.94,11.94,0,0,0-.57-2.07,8,8,0,0,0-1.52-2.89,1.52,1.52,0,0,0-2.18-.13c-.59.68-.19,1.67.15,2.36a9.3,9.3,0,0,0,3.41,3.55,3.53,3.53,0,0,1-.06,1.62c-.4,1.25-1.52.54-2.22-.05a43.61,43.61,0,0,1-3.82-4c-.29-.32-.8.09-.59.46a13.77,13.77,0,0,0,2.14,2.68,12.44,12.44,0,0,0,2.61,2.19c1.82,1,2.9-.7,2.83-2.35,1.62,1,3.95,2.52,5.87,1.81S275.51,351.84,275.29,350.08Zm-10.82-.72c-.24-.31-1.52-2.16-.51-2.33.78-.13,1.35,1.45,1.59,2a12.85,12.85,0,0,1,.68,2l-.3-.21A8,8,0,0,1,264.47,349.36Z" fill="#648900"/><path d="M192.43,353a.67.67,0,0,0-.56-.32c.17,0,0,0,0,0l-.14-.06-.27-.1-.58-.22a3.62,3.62,0,0,0-.55-.2,1.71,1.71,0,0,0-.67-.1l-.08,0a.34.34,0,0,0-.26.62l.07.05a.24.24,0,0,0,.05.1,1.27,1.27,0,0,0,.19.13l.25.17a5.52,5.52,0,0,0,.54.28l.53.26.27.13.15.07s.17.12.06,0a.65.65,0,0,0,1-.2A.64.64,0,0,0,192.43,353Z" fill="#94c100"/><path d="M202.17,344.41a.65.65,0,0,0-.76-.1,1.58,1.58,0,0,0-.34.29c-.08.08-.15.17-.22.25l-.45.52-.43.5a1.83,1.83,0,0,0-.26.36l-.17.3a.5.5,0,0,0,.68.68,3.41,3.41,0,0,0,.6-.46l.47-.49.46-.48a2.52,2.52,0,0,0,.51-.62.63.63,0,0,0-.09-.75Z" fill="#94c100"/><path d="M205.47,356.76a2.31,2.31,0,0,0-.1-.28l-.13-.18a3.36,3.36,0,0,0-.34-.41c-.18-.21-.37-.41-.56-.61l-1.13-1.23a.6.6,0,0,0-.84,0,.62.62,0,0,0,0,.84l1,1.27c.18.2.35.41.52.62a2.19,2.19,0,0,0,.7.62.58.58,0,0,0,.63,0A.56.56,0,0,0,205.47,356.76Z" fill="#94c100"/><path d="M218.52,347.31a.55.55,0,0,0-.74-.19l-2,1.2a.52.52,0,0,0,.52.89l2-1.16A.55.55,0,0,0,218.52,347.31Z" fill="#94c100"/><path d="M179.47,349.34c0-.14-.05-.28-.07-.42l-.12-.7-.24-1.44a.65.65,0,0,0-.81-.45.67.67,0,0,0-.46.8l.3,1.42c0,.23.09.47.14.7s0,.22.07.33a2.88,2.88,0,0,0,.19.45.53.53,0,0,0,.6.24.55.55,0,0,0,.4-.52C179.47,349.61,179.48,349.48,179.47,349.34Z" fill="#94c100"/><path d="M227.66,340.73l-.68-1a6.1,6.1,0,0,0-.81-1,.52.52,0,0,0-.61-.08.51.51,0,0,0-.24.57,7.23,7.23,0,0,0,.55,1.16l.59,1a.71.71,0,0,0,.95.25A.7.7,0,0,0,227.66,340.73Z" fill="#94c100"/><path d="M231.69,353.6a.64.64,0,0,0-.37-.29.6.6,0,0,0-.47.07l-1.26.87a.73.73,0,0,0-.29.38.63.63,0,0,0,.44.78.6.6,0,0,0,.49-.06l1.24-.91a.65.65,0,0,0,.28-.37A.6.6,0,0,0,231.69,353.6Z" fill="#94c100"/><path d="M217.44,357l-1.18,0a5.71,5.71,0,0,0-1.24.08.37.37,0,0,0-.28.37.38.38,0,0,0,.28.36,12.2,12.2,0,0,0,2.42.37.58.58,0,0,0,.57-.57A.58.58,0,0,0,217.44,357Z" fill="#94c100"/><path d="M244.88,343.51a6.82,6.82,0,0,0-.79-.1l-.7-.09-1.36-.17a.61.61,0,0,0-.45.18.68.68,0,0,0-.18.37.63.63,0,0,0,.46.69l1.36.2.67.09a7.68,7.68,0,0,0,.82.11.65.65,0,0,0,.17-1.28Z" fill="#94c100"/><path d="M241,357a.56.56,0,0,0-.58-.2,1.41,1.41,0,0,0-.45.25l-.3.22-.63.44a.62.62,0,0,0-.27.35.59.59,0,0,0,.06.45.56.56,0,0,0,.35.27.58.58,0,0,0,.45-.06l.63-.45.31-.23.17-.11.17-.14a.75.75,0,0,0,.14-.17A.58.58,0,0,0,241,357Z" fill="#94c100"/><path d="M255.49,348.65a7,7,0,0,0-1.16-.75l-1.08-.64a.7.7,0,0,0-.95.25.71.71,0,0,0,.24.95l1.09.63a7.28,7.28,0,0,0,1.23.66.56.56,0,0,0,.42,0,.6.6,0,0,0,.32-.27A.65.65,0,0,0,255.49,348.65Z" fill="#94c100"/><path d="M258.61,354.09l-.37.35a4,4,0,0,0-.35.36c-.23.24-.47.48-.7.73a.48.48,0,1,0,.76.58l.54-.85c.09-.14.18-.28.26-.43l.24-.44A.25.25,0,0,0,258.61,354.09Z" fill="#94c100"/><path d="M266.68,344.07a2.54,2.54,0,0,0-.17-.46l-.18-.32-.35-.61-.71-1.24a.71.71,0,0,0-1-.26.72.72,0,0,0-.25,1l.71,1.24c.11.2.23.4.34.61l.18.3a3,3,0,0,0,.32.39.65.65,0,0,0,.78.1A.66.66,0,0,0,266.68,344.07Z" fill="#94c100"/><path d="M272,352.5a.6.6,0,0,0-.22-.32.73.73,0,0,0-.37-.14.58.58,0,0,0-.19,0,.6.6,0,0,0-.3.17l-.07.09-.17.19-.33.37-.65.74a.71.71,0,0,0-.19.46.66.66,0,0,0,.19.46.71.71,0,0,0,.46.19.68.68,0,0,0,.46-.19l.65-.76.33-.38.16-.18.08-.09a.76.76,0,0,0,.18-.37A.82.82,0,0,0,272,352.5Z" fill="#94c100"/></g></g></g></svg>