<svg xmlns="http://www.w3.org/2000/svg" xmlns:xlink="http://www.w3.org/1999/xlink" viewBox="0 0 1501.6 503.61"><defs><style>.Graphic-Style-6{fill:url(#New_Gradient_Swatch_1);}</style><linearGradient id="New_Gradient_Swatch_1" x1="1321.84" y1="495.52" x2="1188.65" y2="-32.78" gradientUnits="userSpaceOnUse"><stop offset="0" stop-color="#4002e4"/><stop offset="1" stop-color="#7680f4"/></linearGradient></defs><g id="Layer_2" data-name="Layer 2"><g id="Layer_1-2" data-name="Layer 1"><path class="Graphic-Style-6" d="M1287.47,393.51c.17-.25.32-.51.47-.76l.26-.46C1288,392.7,1287.73,393.11,1287.47,393.51ZM1277,406.72l-1.37,1.29c1.19-1.06,2.34-2.19,3.43-3.36-.36.38-.73.75-1.09,1.12Zm-7.52,6.2-.37.27c-.68.47-1.36.92-2,1.36l-.19.12c-.74.46-1.47.91-2.22,1.34-1.37.79-2.75,1.53-4.16,2.21A62.49,62.49,0,0,0,1275.63,408l-.45.39A64.63,64.63,0,0,1,1269.48,412.92ZM1264.71,500a146.71,146.71,0,0,1-16.94,2.83A138.58,138.58,0,0,0,1264.71,500Zm-37.9-75.75a65.38,65.38,0,0,1-12-2.37A62.2,62.2,0,0,0,1226.81,424.25Zm-64.12,60.88q2.5,1.42,5.06,2.72c-2-1.05-4.06-2.16-6.07-3.31C1162,484.73,1162.35,484.94,1162.69,485.13Zm334-379.4a142.61,142.61,0,0,0-251-49.84,4.14,4.14,0,0,0-.26,4.64l.9,1.54L1288,134.21a1.4,1.4,0,0,0,2.41,0l13.48-23.34A63.55,63.55,0,1,1,1414,174.42l-49,85a8,8,0,0,0,0,8.05l7.5,13a160.27,160.27,0,0,1,20.38,60.7,163.22,163.22,0,0,1,1.2,22.71.89.89,0,0,0,1.66.47L1482.47,214a142.37,142.37,0,0,0,14.25-108.22ZM1370.64,397.88a142.17,142.17,0,0,1-14.22,34.4c-.14.24-.28.49-.43.73-.43.73-.86,1.47-1.31,2.2l-.39.65c-.53.85-1.06,1.69-1.6,2.53l-.09.13q-.87,1.34-1.77,2.67l-.3.44-1.49,2.11-.47.67c-.62.86-1.25,1.72-1.89,2.57l0,0q-1.08,1.42-2.19,2.82c-.62.79-1.26,1.57-1.9,2.34l-.65.78c-.67.79-1.34,1.58-2,2.36l-.1.11c-.68.77-1.36,1.53-2.06,2.28l-.59.63c-.68.74-1.38,1.47-2.09,2.2l-.09.1-2.14,2.14-.55.54c-.76.73-1.52,1.46-2.29,2.18l-.1.1c-.84.77-1.69,1.53-2.54,2.28-2.66,2.35-5.41,4.61-8.25,6.74a143,143,0,0,1-14.9,9.88q-6.09,3.52-12.48,6.42l-2.13.94-2.16.91-2.16.87c-.72.29-1.44.57-2.17.84-1.45.55-2.91,1.07-4.38,1.57-.64.22-1.28.43-1.93.63-1.62.54-3.25,1-4.88,1.5l-1.9.53-1.31.34-1.74.44-2.24.53a146.71,146.71,0,0,1-16.94,2.83c-1.9.2-3.82.36-5.73.48-1.3.09-2.61.15-3.91.2l-.51,0-1.57,0c-1.08,0-2.14,0-3.21,0s-2.07,0-3.1,0l-1.57,0-.51,0c-1.3-.05-2.61-.11-3.92-.2q-2.87-.18-5.72-.48a146.88,146.88,0,0,1-17-2.83c-.75-.17-1.49-.34-2.23-.53l-2-.5c-3.62-.93-7.18-2.05-10.71-3.25l-1.28-.46c-.72-.25-1.44-.52-2.17-.79l-.07,0c-.71-.26-1.42-.54-2.13-.82s-1.5-.6-2.25-.91-1.37-.57-2.06-.87l-2.35-1-1.91-.88q-2.1-1-4.19-2.07c-2-1.05-4.06-2.16-6.07-3.31l-.1-.06-.13-.08q-2.27-1.31-4.48-2.7a141,141,0,0,1-13.09-9.28c-1.85-1.47-3.67-3-5.44-4.56-.85-.75-1.7-1.51-2.53-2.28l-.1-.1c-.77-.72-1.54-1.44-2.29-2.18-1.49-1.45-3-2.93-4.39-4.45l-1.4-1.5c-1.21-1.32-2.4-2.68-3.56-4.05l-1.25-1.5c-.51-.6-1-1.22-1.49-1.84-.23-.28-.46-.57-.68-.86-.44-.54-.86-1.07-1.27-1.62l-.77-1c-.21-.27-.42-.55-.62-.83-.79-1.08-1.57-2.18-2.34-3.29-.45-.65-.9-1.3-1.34-2-.88-1.32-1.75-2.65-2.59-4l-1.14-1.87c-.09-.13-.17-.27-.25-.41-.36-.61-.72-1.21-1.07-1.82a2.48,2.48,0,0,1-.18-.31,142.6,142.6,0,0,1,.2-142.31l4.48-7.75,10.69-18.52L1175,176a1.77,1.77,0,0,1,3.06,0L1221.41,251a2.74,2.74,0,0,1,0,2.74l-43.55,75.42a63.45,63.45,0,0,0-.27,63.1l.26.46c.15.25.29.51.46.76s.32.55.49.82.39.64.6.95.29.47.45.71c.28.43.57.85.87,1.28.1.16.22.32.34.48.23.35.48.7.75,1s.31.43.48.64c.35.48.72.94,1.1,1.4s.87,1.08,1.33,1.6.65.76,1,1.13.66.73,1,1.09a62.69,62.69,0,0,0,18.57,13.57l1.56.72c.54.24,1.08.48,1.63.7a57.27,57.27,0,0,0,6.28,2.24,62.2,62.2,0,0,0,12,2.37c.66.07,1.32.12,2,.16,1.36.09,2.7.13,4,.13s2.78-.05,4.16-.13c.66,0,1.32-.1,2-.16a62.35,62.35,0,0,0,12-2.37c.68-.2,1.36-.42,2-.64s1.32-.45,2-.7,1.53-.57,2.28-.9c.55-.21,1.09-.45,1.63-.7s1-.47,1.55-.72A62.49,62.49,0,0,0,1275.63,408c1.19-1.06,2.34-2.19,3.43-3.36.35-.36.69-.72,1-1.09s.67-.74,1-1.13.84-1,1.22-1.46a1.74,1.74,0,0,0,.22-.27c.41-.5.8-1,1.17-1.51s.73-1,1.08-1.48l.31-.44c.3-.42.59-.85.87-1.28.15-.23.31-.47.45-.71s.41-.63.6-.95.34-.55.49-.82.32-.51.47-.76l.26-.46a63.6,63.6,0,0,0-.28-63.1l-44.34-76.79-10.69-18.52-45.65-79.07-10.69-18.52-14.69-25.42a63.55,63.55,0,1,0-110.07,63.55l47.87,82.9a12.13,12.13,0,0,1,0,12.14l-6.31,10.94A160.27,160.27,0,0,0,1073,341.1l-2.52,20.55a.9.9,0,0,1-1.67.34L983.31,214A142.65,142.65,0,0,1,1106.77,0a142.62,142.62,0,0,1,115,58.16,139.21,139.21,0,0,1,8.61,13.17l2.54,4.4,45.66,79.08,10.69,18.52,52,90.06,10.69,18.52,4.47,7.75a142.31,142.31,0,0,1,14.24,108.22Z"/><path class="Graphic-Style-6" d="M88.74,114.16q0-22.38,22.38-22.38,21.93,0,21.93,22.38,0,22.85-21.93,22.84Q88.74,137,88.74,114.16ZM449.62,380.94q-22.39,0-22.38,22.84,0,22.38,22.38,22.39,21.93,0,21.93-22.39Q471.55,380.94,449.62,380.94Zm58,0q-22.39,0-22.39,22.84,0,22.38,22.39,22.39,21.92,0,21.92-22.39Q529.56,380.94,507.64,380.94ZM648.33,137q21.93,0,21.93-22.84,0-22.38-21.93-22.38-22.38,0-22.38,22.38Q626,137,648.33,137ZM197.8,314.7q0,31.53-18.27,51.17-21.93,23.29-62.13,23.3-34.71,0-57.1-22.84-23.76-24.68-23.75-63.05A133.51,133.51,0,0,1,49.7,245a6.94,6.94,0,0,0-7.64-9.92l-2.28.5A45.54,45.54,0,0,0,6.37,265.25C2.12,277.56,0,292.66,0,307.4q0,44.31,25.13,76.74,32.88,42,92.27,42,50.72,0,83.14-27.87,36.56-31.07,36.55-83.6V148.07a10.75,10.75,0,0,0-15.82-9.48l-11.39,6.09a22.86,22.86,0,0,0-12.08,20.16Zm600.36-58q0,45.69-44.76,45.68H720.51q-44.78,0-44.77-45.68v-64.3a12.91,12.91,0,0,0-19-11.38l-8.42,4.51a22.49,22.49,0,0,0-11.88,19.83v51.34q0,45.69-44.76,45.68H558.8q-44.77,0-44.77-45.68v-64.3A12.91,12.91,0,0,0,495,181l-8.41,4.51a22.47,22.47,0,0,0-11.88,19.83v51.34q0,45.69-44.77,45.68H397.09q-44.77,0-44.77-45.68V91.29a12.91,12.91,0,0,0-19-11.38l-8.42,4.51A22.49,22.49,0,0,0,313,104.25V258.06q0,33.81,18.27,55.73,21.48,25.59,61.22,25.58h42q37.92,0,59.85-24.21,21.93,24.22,59.84,24.21h42q37.92,0,59.85-24.21,21.93,24.22,59.84,24.21h42q34.71,0,56.19-20.1,23.29-22.38,23.3-61.21V192.39a12.91,12.91,0,0,0-19-11.38L810,185.52a22.49,22.49,0,0,0-11.88,19.83Zm-1.37,124.25q-22.38,0-22.38,22.39,0,22.83,22.38,22.84,21.93,0,21.93-22.84Q818.72,380.93,796.79,380.94ZM817.45,92.51a18.58,18.58,0,0,0-14.17-6.05,18.08,18.08,0,0,0-13.89,6.19,21.84,21.84,0,0,0-5.64,15.27,22.73,22.73,0,0,0,4.42,14,.26.26,0,0,1-.16.42l-18.16,2.6a8,8,0,0,0-5.79,4.47L759.6,139a1.51,1.51,0,0,0,1.64,2.12l41.22-6.75a22.47,22.47,0,0,0,14.85-8.8,27.82,27.82,0,0,0,5.77-17.6Q823.08,98.57,817.45,92.51Zm-9.93,23.07a5.15,5.15,0,0,1-7.74.34,11.63,11.63,0,0,1-3.19-8.51q0-8.88,6.74-8.89,7,0,7,8.89A12.45,12.45,0,0,1,807.52,115.58Z"/></g></g></svg>