<svg xmlns="http://www.w3.org/2000/svg" xmlns:xlink="http://www.w3.org/1999/xlink" viewBox="0 0 278.4 1020.44"><defs><clipPath id="clip-path" transform="translate(-20.92 612)"><rect width="328" height="418" fill="none"/></clipPath></defs><g id="Layer_2" data-name="Layer 2"><g id="Layer_2-2" data-name="Layer 2"><g clip-path="url(#clip-path)"><path d="M173.44,203.74a3.26,3.26,0,0,1-2.27-.94,4.13,4.13,0,0,1-.69-1,3.89,3.89,0,0,1-.24-1.23,3.25,3.25,0,0,1,.93-2.27,3.34,3.34,0,0,1,4.53,0,3.2,3.2,0,0,1,0,4.53,3,3,0,0,1-1,.69A3.42,3.42,0,0,1,173.44,203.74Z" transform="translate(-20.92 612)" fill="#fff"/><path d="M170.24,185.82a3.18,3.18,0,0,1,3.2-3.2h0a3.19,3.19,0,0,1,3.2,3.2h0a3.2,3.2,0,0,1-3.2,3.2h0A3.19,3.19,0,0,1,170.24,185.82Zm0-14.72a3.18,3.18,0,0,1,3.2-3.2h0a3.19,3.19,0,0,1,3.2,3.2h0a3.2,3.2,0,0,1-3.2,3.2h0A3.19,3.19,0,0,1,170.24,171.1Zm0-14.72a3.19,3.19,0,0,1,3.2-3.2h0a3.2,3.2,0,0,1,3.2,3.2h0a3.2,3.2,0,0,1-3.2,3.2h0A3.19,3.19,0,0,1,170.24,156.38Zm0-14.72a3.19,3.19,0,0,1,3.2-3.2h0a3.2,3.2,0,0,1,3.2,3.2h0a3.2,3.2,0,0,1-3.2,3.2h0A3.19,3.19,0,0,1,170.24,141.66Zm0-14.72a3.19,3.19,0,0,1,3.2-3.2h0a3.2,3.2,0,0,1,3.2,3.2h0a3.2,3.2,0,0,1-3.2,3.2h0A3.19,3.19,0,0,1,170.24,126.94Zm0-14.72a3.19,3.19,0,0,1,3.2-3.2h0a3.2,3.2,0,0,1,3.2,3.2h0a3.19,3.19,0,0,1-3.2,3.2h0A3.18,3.18,0,0,1,170.24,112.22Zm0-14.71a3.18,3.18,0,0,1,3.2-3.2h0a3.19,3.19,0,0,1,3.2,3.2h0a3.19,3.19,0,0,1-3.2,3.19h0A3.18,3.18,0,0,1,170.24,97.51Zm0-14.72a3.18,3.18,0,0,1,3.2-3.2h0a3.19,3.19,0,0,1,3.2,3.2h0a3.2,3.2,0,0,1-3.2,3.2h0A3.19,3.19,0,0,1,170.24,82.79Zm0-14.72a3.22,3.22,0,0,1,3.2-3.2h0a3.22,3.22,0,0,1,3.2,3.2h0a3.2,3.2,0,0,1-3.2,3.2h0A3.19,3.19,0,0,1,170.24,68.07Zm0-14.67a3.19,3.19,0,0,1,3.2-3.2h0a3.2,3.2,0,0,1,3.2,3.2h0a3.23,3.23,0,0,1-3.2,3.2h0A3.22,3.22,0,0,1,170.24,53.4Zm0-14.72a3.19,3.19,0,0,1,3.2-3.2h0a3.2,3.2,0,0,1,3.2,3.2h0a3.2,3.2,0,0,1-3.2,3.2h0A3.19,3.19,0,0,1,170.24,38.68Zm0-14.72a3.19,3.19,0,0,1,3.2-3.2h0a3.2,3.2,0,0,1,3.2,3.2h0a3.2,3.2,0,0,1-3.2,3.2h0A3.19,3.19,0,0,1,170.24,24Zm0-14.72a3.19,3.19,0,0,1,3.2-3.2h0a3.2,3.2,0,0,1,3.2,3.2h0a3.19,3.19,0,0,1-3.2,3.2h0A3.18,3.18,0,0,1,170.24,9.24Zm0-14.72a3.18,3.18,0,0,1,3.2-3.19h0a3.19,3.19,0,0,1,3.2,3.19h0a3.19,3.19,0,0,1-3.2,3.2h0A3.18,3.18,0,0,1,170.24-5.48Zm0-14.72a3.18,3.18,0,0,1,3.2-3.19h0a3.19,3.19,0,0,1,3.2,3.19h0a3.19,3.19,0,0,1-3.2,3.2h0A3.18,3.18,0,0,1,170.24-20.2Zm0-14.71a3.18,3.18,0,0,1,3.2-3.2h0a3.19,3.19,0,0,1,3.2,3.2h0a3.2,3.2,0,0,1-3.2,3.2h0A3.19,3.19,0,0,1,170.24-34.91Zm0-14.72a3.19,3.19,0,0,1,3.2-3.2h0a3.2,3.2,0,0,1,3.2,3.2h0a3.2,3.2,0,0,1-3.2,3.2h0A3.19,3.19,0,0,1,170.24-49.63Zm0-14.72a3.19,3.19,0,0,1,3.2-3.2h0a3.2,3.2,0,0,1,3.2,3.2h0a3.2,3.2,0,0,1-3.2,3.2h0A3.19,3.19,0,0,1,170.24-64.35Zm0-14.72a3.19,3.19,0,0,1,3.2-3.2h0a3.2,3.2,0,0,1,3.2,3.2h0a3.2,3.2,0,0,1-3.2,3.2h0A3.19,3.19,0,0,1,170.24-79.07Zm0-14.72a3.19,3.19,0,0,1,3.2-3.2h0a3.2,3.2,0,0,1,3.2,3.2h0a3.19,3.19,0,0,1-3.2,3.2h0A3.18,3.18,0,0,1,170.24-93.79Zm0-14.72a3.22,3.22,0,0,1,3.2-3.2h0a3.23,3.23,0,0,1,3.2,3.2h0a3.19,3.19,0,0,1-3.2,3.2h0A3.18,3.18,0,0,1,170.24-108.51Zm0-14.67a3.19,3.19,0,0,1,3.2-3.24h0a3.2,3.2,0,0,1,3.2,3.24h0a3.22,3.22,0,0,1-3.2,3.2h0A3.22,3.22,0,0,1,170.24-123.18Zm0-14.71a3.18,3.18,0,0,1,3.2-3.2h0a3.19,3.19,0,0,1,3.2,3.2h0a3.19,3.19,0,0,1-3.2,3.15h0A3.18,3.18,0,0,1,170.24-137.89Zm0-14.72a3.19,3.19,0,0,1,3.2-3.2h0a3.2,3.2,0,0,1,3.2,3.2h0a3.2,3.2,0,0,1-3.2,3.2h0A3.19,3.19,0,0,1,170.24-152.61Zm0-14.72a3.19,3.19,0,0,1,3.2-3.2h0a3.2,3.2,0,0,1,3.2,3.2h0a3.2,3.2,0,0,1-3.2,3.2h0A3.19,3.19,0,0,1,170.24-167.33Zm0-14.72a3.19,3.19,0,0,1,3.2-3.2h0a3.2,3.2,0,0,1,3.2,3.2h0a3.2,3.2,0,0,1-3.2,3.2h0A3.19,3.19,0,0,1,170.24-182Zm0-14.72a3.19,3.19,0,0,1,3.2-3.2h0a3.2,3.2,0,0,1,3.2,3.2h0a3.19,3.19,0,0,1-3.2,3.2h0A3.18,3.18,0,0,1,170.24-196.77Zm0-14.72a3.19,3.19,0,0,1,3.2-3.2h0a3.2,3.2,0,0,1,3.2,3.2h0a3.19,3.19,0,0,1-3.2,3.2h0A3.18,3.18,0,0,1,170.24-211.49Zm0-14.72a3.19,3.19,0,0,1,3.2-3.2h0a3.2,3.2,0,0,1,3.2,3.2h0a3.2,3.2,0,0,1-3.2,3.21h0A3.19,3.19,0,0,1,170.24-226.21Zm0-14.71a3.19,3.19,0,0,1,3.2-3.2h0a3.2,3.2,0,0,1,3.2,3.2h0a3.2,3.2,0,0,1-3.2,3.2h0A3.19,3.19,0,0,1,170.24-240.92Zm0-14.72a3.19,3.19,0,0,1,3.2-3.2h0a3.2,3.2,0,0,1,3.2,3.2h0a3.2,3.2,0,0,1-3.2,3.2h0A3.19,3.19,0,0,1,170.24-255.64Zm0-14.72a3.19,3.19,0,0,1,3.2-3.2h0a3.2,3.2,0,0,1,3.2,3.2h0a3.2,3.2,0,0,1-3.2,3.2h0A3.19,3.19,0,0,1,170.24-270.36Zm0-14.72a3.19,3.19,0,0,1,3.2-3.2h0a3.2,3.2,0,0,1,3.2,3.2h0a3.2,3.2,0,0,1-3.2,3.2h0A3.19,3.19,0,0,1,170.24-285.08Zm0-14.72a3.19,3.19,0,0,1,3.2-3.2h0a3.2,3.2,0,0,1,3.2,3.2h0a3.2,3.2,0,0,1-3.2,3.2h0A3.19,3.19,0,0,1,170.24-299.8Zm0-14.72a3.22,3.22,0,0,1,3.2-3.2h0a3.23,3.23,0,0,1,3.2,3.2h0a3.19,3.19,0,0,1-3.2,3.2h0A3.18,3.18,0,0,1,170.24-314.52Zm0-14.67a3.19,3.19,0,0,1,3.2-3.24h0a3.2,3.2,0,0,1,3.2,3.24h0a3.22,3.22,0,0,1-3.2,3.2h0A3.22,3.22,0,0,1,170.24-329.19Zm0-14.71a3.18,3.18,0,0,1,3.2-3.2h0a3.19,3.19,0,0,1,3.2,3.2h0a3.19,3.19,0,0,1-3.2,3.15h0A3.18,3.18,0,0,1,170.24-343.9Zm0-14.72a3.19,3.19,0,0,1,3.2-3.2h0a3.2,3.2,0,0,1,3.2,3.2h0a3.2,3.2,0,0,1-3.2,3.2h0A3.19,3.19,0,0,1,170.24-358.62Zm0-14.72a3.19,3.19,0,0,1,3.2-3.2h0a3.2,3.2,0,0,1,3.2,3.2h0a3.2,3.2,0,0,1-3.2,3.2h0A3.19,3.19,0,0,1,170.24-373.34Zm0-14.72a3.19,3.19,0,0,1,3.2-3.2h0a3.2,3.2,0,0,1,3.2,3.2h0a3.2,3.2,0,0,1-3.2,3.2h0A3.19,3.19,0,0,1,170.24-388.06Zm0-14.72a3.19,3.19,0,0,1,3.2-3.2h0a3.2,3.2,0,0,1,3.2,3.2h0a3.2,3.2,0,0,1-3.2,3.2h0A3.19,3.19,0,0,1,170.24-402.78Zm0-14.72a3.19,3.19,0,0,1,3.2-3.2h0a3.2,3.2,0,0,1,3.2,3.2h0a3.2,3.2,0,0,1-3.2,3.2h0A3.19,3.19,0,0,1,170.24-417.5Zm0-14.71a3.19,3.19,0,0,1,3.2-3.21h0a3.2,3.2,0,0,1,3.2,3.21h0a3.19,3.19,0,0,1-3.2,3.19h0A3.18,3.18,0,0,1,170.24-432.21Zm0-14.72a3.18,3.18,0,0,1,3.2-3.2h0a3.19,3.19,0,0,1,3.2,3.2h0a3.2,3.2,0,0,1-3.2,3.2h0A3.19,3.19,0,0,1,170.24-446.93Zm0-14.72a3.18,3.18,0,0,1,3.2-3.2h0a3.19,3.19,0,0,1,3.2,3.2h0a3.2,3.2,0,0,1-3.2,3.2h0A3.19,3.19,0,0,1,170.24-461.65Zm0-14.72a3.19,3.19,0,0,1,3.2-3.2h0a3.2,3.2,0,0,1,3.2,3.2h0a3.2,3.2,0,0,1-3.2,3.2h0A3.19,3.19,0,0,1,170.24-476.37Zm0-14.72a3.19,3.19,0,0,1,3.2-3.2h0a3.2,3.2,0,0,1,3.2,3.2h0a3.2,3.2,0,0,1-3.2,3.2h0A3.19,3.19,0,0,1,170.24-491.09Zm0-14.72a3.19,3.19,0,0,1,3.2-3.2h0a3.2,3.2,0,0,1,3.2,3.2h0a3.2,3.2,0,0,1-3.2,3.2h0A3.19,3.19,0,0,1,170.24-505.81Zm0-14.72a3.22,3.22,0,0,1,3.2-3.2h0a3.23,3.23,0,0,1,3.2,3.2h0a3.19,3.19,0,0,1-3.2,3.2h0A3.18,3.18,0,0,1,170.24-520.53Zm0-14.67a3.22,3.22,0,0,1,3.2-3.24h0a3.23,3.23,0,0,1,3.2,3.24h0a3.22,3.22,0,0,1-3.2,3.2h0A3.22,3.22,0,0,1,170.24-535.2Zm0-14.71a3.18,3.18,0,0,1,3.2-3.2h0a3.19,3.19,0,0,1,3.2,3.2h0a3.23,3.23,0,0,1-3.2,3.2h0A3.22,3.22,0,0,1,170.24-549.91Zm0-14.72a3.18,3.18,0,0,1,3.2-3.2h0a3.19,3.19,0,0,1,3.2,3.2h0a3.2,3.2,0,0,1-3.2,3.2h0A3.19,3.19,0,0,1,170.24-564.63Zm0-14.72a3.19,3.19,0,0,1,3.2-3.2h0a3.2,3.2,0,0,1,3.2,3.2h0a3.2,3.2,0,0,1-3.2,3.2h0A3.19,3.19,0,0,1,170.24-579.35Zm0-14.72a3.19,3.19,0,0,1,3.2-3.2h0a3.2,3.2,0,0,1,3.2,3.2h0a3.2,3.2,0,0,1-3.2,3.2h0A3.19,3.19,0,0,1,170.24-594.07Z" transform="translate(-20.92 612)" fill="#fff"/><path d="M173.44-605.59a3.25,3.25,0,0,1-2.27-.93,3.27,3.27,0,0,1-.93-2.27,3.25,3.25,0,0,1,.93-2.26,3.43,3.43,0,0,1,1-.69,3,3,0,0,1,2.46,0,3,3,0,0,1,1,.69,3.25,3.25,0,0,1,.94,2.26,3.28,3.28,0,0,1-.94,2.27A3.16,3.16,0,0,1,173.44-605.59Z" transform="translate(-20.92 612)" fill="#fff"/><path d="M198.62,367.37a84.68,84.68,0,0,1,33.15-158.09,100.8,100.8,0,0,0-120.63,78.21c-9,43.09,11.93,88,50.76,108.78a100.79,100.79,0,0,0,137.42-42.19A84.69,84.69,0,0,1,198.62,367.37Z" transform="translate(-20.92 612)" fill="#fff"/><path d="M255.08,77.26a2,2,0,0,1-.77-.16,1.68,1.68,0,0,1-.65-.43,1.83,1.83,0,0,1-.44-.65,1.74,1.74,0,0,1-.15-.77,1.66,1.66,0,0,1,.15-.77,1.83,1.83,0,0,1,.44-.65,1.68,1.68,0,0,1,.65-.43,2,2,0,0,1,2.19.43,1.68,1.68,0,0,1,.43.65,2,2,0,0,1,.16.77,2.08,2.08,0,0,1-.16.77,1.68,1.68,0,0,1-.43.65A2,2,0,0,1,255.08,77.26Z" transform="translate(-20.92 612)" fill="#fff"/><path d="M253.07,66a2,2,0,0,1,2-2h0a2,2,0,0,1,2,2h0a2,2,0,0,1-2,2h0A2,2,0,0,1,253.07,66Zm0-9.25a2,2,0,0,1,2-2h0a2,2,0,0,1,2,2h0a2,2,0,0,1-2,2h0A2,2,0,0,1,253.07,56.76Zm0-9.24a2,2,0,0,1,2-2h0a2,2,0,0,1,2,2h0a2,2,0,0,1-2,2h0A2,2,0,0,1,253.07,47.52Zm0-9.24a2,2,0,0,1,2-2h0a2,2,0,0,1,2,2h0a2,2,0,0,1-2,2h0A2,2,0,0,1,253.07,38.28Zm0-9.25a2,2,0,0,1,2-2h0a2,2,0,0,1,2,2h0a2,2,0,0,1-2,2h0A2,2,0,0,1,253.07,29Zm0-9.24a2,2,0,0,1,2-2h0a2,2,0,0,1,2,2h0a2,2,0,0,1-2,2h0A2,2,0,0,1,253.07,19.79Zm0-9.24a2,2,0,0,1,2-2h0a2,2,0,0,1,2,2h0a2,2,0,0,1-2,2h0A2,2,0,0,1,253.07,10.55Zm0-9.24a2,2,0,0,1,2-2h0a2,2,0,0,1,2,2h0a2,2,0,0,1-2,2h0A2,2,0,0,1,253.07,1.31Zm0-9.22a2,2,0,0,1,2-2h0a2,2,0,0,1,2,2h0a2,2,0,0,1-2,2h0A2,2,0,0,1,253.07-7.91Zm0-9.24a2,2,0,0,1,2-2h0a2,2,0,0,1,2,2h0a2,2,0,0,1-2,2h0A2,2,0,0,1,253.07-17.15Zm0-9.24a2,2,0,0,1,2-2h0a2,2,0,0,1,2,2h0a2,2,0,0,1-2,2h0A2,2,0,0,1,253.07-26.39Zm0-9.25a2,2,0,0,1,2-2h0a2,2,0,0,1,2,2h0a2,2,0,0,1-2,2h0A2,2,0,0,1,253.07-35.64Zm0-9.24a2,2,0,0,1,2-2h0a2,2,0,0,1,2,2h0a2,2,0,0,1-2,2h0A2,2,0,0,1,253.07-44.88Zm0-9.24a2,2,0,0,1,2-2h0a2,2,0,0,1,2,2h0a2,2,0,0,1-2,2h0A2,2,0,0,1,253.07-54.12Zm0-9.25a2,2,0,0,1,2-2h0a2,2,0,0,1,2,2h0a2,2,0,0,1-2,2h0A2,2,0,0,1,253.07-63.37Zm0-9.24a2,2,0,0,1,2-2h0a2,2,0,0,1,2,2h0a2,2,0,0,1-2,2h0A2,2,0,0,1,253.07-72.61Zm0-9.24a2,2,0,0,1,2-2h0a2,2,0,0,1,2,2h0a2,2,0,0,1-2,2h0A2,2,0,0,1,253.07-81.85Zm0-9.24a2,2,0,0,1,2-2h0a2,2,0,0,1,2,2h0a2,2,0,0,1-2,2h0A2,2,0,0,1,253.07-91.09Zm0-9.25a2,2,0,0,1,2-2h0a2,2,0,0,1,2,2h0a2,2,0,0,1-2,2h0A2,2,0,0,1,253.07-100.34Zm0-9.24a2,2,0,0,1,2-2h0a2,2,0,0,1,2,2h0a2,2,0,0,1-2,2h0A2,2,0,0,1,253.07-109.58Zm0-9.24a2,2,0,0,1,2-2h0a2,2,0,0,1,2,2h0a2,2,0,0,1-2,2h0A2,2,0,0,1,253.07-118.82Zm0-9.25a2,2,0,0,1,2-2h0a2,2,0,0,1,2,2h0a2,2,0,0,1-2,2h0A2,2,0,0,1,253.07-128.07Zm0-9.24a2,2,0,0,1,2-2h0a2,2,0,0,1,2,2h0a2,2,0,0,1-2,2h0A2,2,0,0,1,253.07-137.31Zm0-9.21a2,2,0,0,1,2-2h0a2,2,0,0,1,2,2h0a2,2,0,0,1-2,2h0A2,2,0,0,1,253.07-146.52Zm0-9.24a2,2,0,0,1,2-2h0a2,2,0,0,1,2,2h0a2,2,0,0,1-2,2h0A2,2,0,0,1,253.07-155.76Zm0-9.25a2,2,0,0,1,2-2h0a2,2,0,0,1,2,2h0a2,2,0,0,1-2,2h0A2,2,0,0,1,253.07-165Zm0-9.24a2,2,0,0,1,2-2h0a2,2,0,0,1,2,2h0a2,2,0,0,1-2,2h0A2,2,0,0,1,253.07-174.25Zm0-9.24a2,2,0,0,1,2-2h0a2,2,0,0,1,2,2h0a2,2,0,0,1-2,2h0A2,2,0,0,1,253.07-183.49Zm0-9.25a2,2,0,0,1,2-2h0a2,2,0,0,1,2,2h0a2,2,0,0,1-2,2h0A2,2,0,0,1,253.07-192.74Zm0-9.24a2,2,0,0,1,2-2h0a2,2,0,0,1,2,2h0a2,2,0,0,1-2,2h0A2,2,0,0,1,253.07-202Zm0-9.24a2,2,0,0,1,2-2h0a2,2,0,0,1,2,2h0a2,2,0,0,1-2,2h0A2,2,0,0,1,253.07-211.22Zm0-9.25a2,2,0,0,1,2-2h0a2,2,0,0,1,2,2h0a2,2,0,0,1-2,2h0A2,2,0,0,1,253.07-220.47Zm0-9.24a2,2,0,0,1,2-2h0a2,2,0,0,1,2,2h0a2,2,0,0,1-2,2h0A2,2,0,0,1,253.07-229.71Zm0-9.24a2,2,0,0,1,2-2h0a2,2,0,0,1,2,2h0a2,2,0,0,1-2,2h0A2,2,0,0,1,253.07-238.95Zm0-9.25a2,2,0,0,1,2-2h0a2,2,0,0,1,2,2h0a2,2,0,0,1-2,2h0A2,2,0,0,1,253.07-248.2Zm0-9.21a2,2,0,0,1,2-2h0a2,2,0,0,1,2,2h0a2,2,0,0,1-2,2h0A2,2,0,0,1,253.07-257.41Zm0-9.24a2,2,0,0,1,2-2h0a2,2,0,0,1,2,2h0a2,2,0,0,1-2,2h0A2,2,0,0,1,253.07-266.65Zm0-9.24a2,2,0,0,1,2-2h0a2,2,0,0,1,2,2h0a2,2,0,0,1-2,2h0A2,2,0,0,1,253.07-275.89Zm0-9.25a2,2,0,0,1,2-2h0a2,2,0,0,1,2,2h0a2,2,0,0,1-2,2h0A2,2,0,0,1,253.07-285.14Zm0-9.24a2,2,0,0,1,2-2h0a2,2,0,0,1,2,2h0a2,2,0,0,1-2,2h0A2,2,0,0,1,253.07-294.38Zm0-9.24a2,2,0,0,1,2-2h0a2,2,0,0,1,2,2h0a2,2,0,0,1-2,2h0A2,2,0,0,1,253.07-303.62Zm0-9.25a2,2,0,0,1,2-2h0a2,2,0,0,1,2,2h0a2,2,0,0,1-2,2h0A2,2,0,0,1,253.07-312.87Zm0-9.24a2,2,0,0,1,2-2h0a2,2,0,0,1,2,2h0a2,2,0,0,1-2,2h0A2,2,0,0,1,253.07-322.11Zm0-9.24a2,2,0,0,1,2-2h0a2,2,0,0,1,2,2h0a2,2,0,0,1-2,2h0A2,2,0,0,1,253.07-331.35Zm0-9.25a2,2,0,0,1,2-2h0a2,2,0,0,1,2,2h0a2,2,0,0,1-2,2h0A2,2,0,0,1,253.07-340.6Zm0-9.24a2,2,0,0,1,2-2h0a2,2,0,0,1,2,2h0a2,2,0,0,1-2,2h0A2,2,0,0,1,253.07-349.84Zm0-9.24a2,2,0,0,1,2-2h0a2,2,0,0,1,2,2h0a2,2,0,0,1-2,2h0A2,2,0,0,1,253.07-359.08Zm0-9.25a2,2,0,0,1,2-2h0a2,2,0,0,1,2,2h0a2,2,0,0,1-2,2h0A2,2,0,0,1,253.07-368.33Zm0-9.24a2,2,0,0,1,2-2h0a2,2,0,0,1,2,2h0a2,2,0,0,1-2,2h0A2,2,0,0,1,253.07-377.57Zm0-9.21a2,2,0,0,1,2-2h0a2,2,0,0,1,2,2h0a2,2,0,0,1-2,2h0A2,2,0,0,1,253.07-386.78Zm0-9.24a2,2,0,0,1,2-2h0a2,2,0,0,1,2,2h0a2,2,0,0,1-2,2h0A2,2,0,0,1,253.07-396Zm0-9.25a2,2,0,0,1,2-2h0a2,2,0,0,1,2,2h0a2,2,0,0,1-2,2h0A2,2,0,0,1,253.07-405.27Zm0-9.24a2,2,0,0,1,2-2h0a2,2,0,0,1,2,2h0a2,2,0,0,1-2,2h0A2,2,0,0,1,253.07-414.51Zm0-9.24a2,2,0,0,1,2-2h0a2,2,0,0,1,2,2h0a2,2,0,0,1-2,2h0A2,2,0,0,1,253.07-423.75Z" transform="translate(-20.92 612)" fill="#fff"/><path d="M255.08-431a2,2,0,0,1-1.42-.58,2,2,0,0,1-.44-.65,1.81,1.81,0,0,1-.15-.78,2,2,0,0,1,.59-1.42,1.8,1.8,0,0,1,.65-.43,2.05,2.05,0,0,1,2.19.43,1.76,1.76,0,0,1,.43.65,2,2,0,0,1,.16.77,2.05,2.05,0,0,1-.16.78,1.84,1.84,0,0,1-.43.65A2,2,0,0,1,255.08-431Z" transform="translate(-20.92 612)" fill="#fff"/><polygon points="234.17 690.76 240.54 718.98 269.34 716.32 244.48 731.09 255.91 757.66 234.17 738.58 212.43 757.66 223.87 731.09 199 716.32 227.8 718.98 234.17 690.76" fill="#fff"/><path d="M56.08,180.26a2,2,0,0,1-.77-.16,1.68,1.68,0,0,1-.65-.43,1.83,1.83,0,0,1-.44-.65,1.74,1.74,0,0,1-.15-.77,1.66,1.66,0,0,1,.15-.77,1.83,1.83,0,0,1,.44-.65,1.68,1.68,0,0,1,.65-.43,2,2,0,0,1,2.19.43,1.68,1.68,0,0,1,.43.65,2,2,0,0,1,.16.77,2.08,2.08,0,0,1-.16.77,1.68,1.68,0,0,1-.43.65A2,2,0,0,1,56.08,180.26Z" transform="translate(-20.92 612)" fill="#fff"/><path d="M54.07,169a2,2,0,0,1,2-2h0a2,2,0,0,1,2,2h0a2,2,0,0,1-2,2h0A2,2,0,0,1,54.07,169Zm0-9.25a2,2,0,0,1,2-2h0a2,2,0,0,1,2,2h0a2,2,0,0,1-2,2h0A2,2,0,0,1,54.07,159.76Zm0-9.24a2,2,0,0,1,2-2h0a2,2,0,0,1,2,2h0a2,2,0,0,1-2,2h0A2,2,0,0,1,54.07,150.52Zm0-9.24a2,2,0,0,1,2-2h0a2,2,0,0,1,2,2h0a2,2,0,0,1-2,2h0A2,2,0,0,1,54.07,141.28Zm0-9.25a2,2,0,0,1,2-2h0a2,2,0,0,1,2,2h0a2,2,0,0,1-2,2h0A2,2,0,0,1,54.07,132Zm0-9.24a2,2,0,0,1,2-2h0a2,2,0,0,1,2,2h0a2,2,0,0,1-2,2h0A2,2,0,0,1,54.07,122.79Zm0-9.24a2,2,0,0,1,2-2h0a2,2,0,0,1,2,2h0a2,2,0,0,1-2,2h0A2,2,0,0,1,54.07,113.55Zm0-9.24a2,2,0,0,1,2-2h0a2,2,0,0,1,2,2h0a2,2,0,0,1-2,2h0A2,2,0,0,1,54.07,104.31Zm0-9.22a2,2,0,0,1,2-2h0a2,2,0,0,1,2,2h0a2,2,0,0,1-2,2h0A2,2,0,0,1,54.07,95.09Zm0-9.24a2,2,0,0,1,2-2h0a2,2,0,0,1,2,2h0a2,2,0,0,1-2,2h0A2,2,0,0,1,54.07,85.85Zm0-9.24a2,2,0,0,1,2-2h0a2,2,0,0,1,2,2h0a2,2,0,0,1-2,2h0A2,2,0,0,1,54.07,76.61Zm0-9.25a2,2,0,0,1,2-2h0a2,2,0,0,1,2,2h0a2,2,0,0,1-2,2h0A2,2,0,0,1,54.07,67.36Zm0-9.24a2,2,0,0,1,2-2h0a2,2,0,0,1,2,2h0a2,2,0,0,1-2,2h0A2,2,0,0,1,54.07,58.12Zm0-9.24a2,2,0,0,1,2-2h0a2,2,0,0,1,2,2h0a2,2,0,0,1-2,2h0A2,2,0,0,1,54.07,48.88Zm0-9.25a2,2,0,0,1,2-2h0a2,2,0,0,1,2,2h0a2,2,0,0,1-2,2h0A2,2,0,0,1,54.07,39.63Zm0-9.24a2,2,0,0,1,2-2h0a2,2,0,0,1,2,2h0a2,2,0,0,1-2,2h0A2,2,0,0,1,54.07,30.39Zm0-9.24a2,2,0,0,1,2-2h0a2,2,0,0,1,2,2h0a2,2,0,0,1-2,2h0A2,2,0,0,1,54.07,21.15Zm0-9.24a2,2,0,0,1,2-2h0a2,2,0,0,1,2,2h0a2,2,0,0,1-2,2h0A2,2,0,0,1,54.07,11.91Zm0-9.25a2,2,0,0,1,2-2h0a2,2,0,0,1,2,2h0a2,2,0,0,1-2,2h0A2,2,0,0,1,54.07,2.66Zm0-9.24a2,2,0,0,1,2-2h0a2,2,0,0,1,2,2h0a2,2,0,0,1-2,2h0A2,2,0,0,1,54.07-6.58Zm0-9.24a2,2,0,0,1,2-2h0a2,2,0,0,1,2,2h0a2,2,0,0,1-2,2h0A2,2,0,0,1,54.07-15.82Zm0-9.25a2,2,0,0,1,2-2h0a2,2,0,0,1,2,2h0a2,2,0,0,1-2,2h0A2,2,0,0,1,54.07-25.07Zm0-9.24a2,2,0,0,1,2-2h0a2,2,0,0,1,2,2h0a2,2,0,0,1-2,2h0A2,2,0,0,1,54.07-34.31Zm0-9.21a2,2,0,0,1,2-2h0a2,2,0,0,1,2,2h0a2,2,0,0,1-2,2h0A2,2,0,0,1,54.07-43.52Zm0-9.24a2,2,0,0,1,2-2h0a2,2,0,0,1,2,2h0a2,2,0,0,1-2,2h0A2,2,0,0,1,54.07-52.76Zm0-9.25a2,2,0,0,1,2-2h0a2,2,0,0,1,2,2h0a2,2,0,0,1-2,2h0A2,2,0,0,1,54.07-62Zm0-9.24a2,2,0,0,1,2-2h0a2,2,0,0,1,2,2h0a2,2,0,0,1-2,2h0A2,2,0,0,1,54.07-71.25Zm0-9.24a2,2,0,0,1,2-2h0a2,2,0,0,1,2,2h0a2,2,0,0,1-2,2h0A2,2,0,0,1,54.07-80.49Zm0-9.25a2,2,0,0,1,2-2h0a2,2,0,0,1,2,2h0a2,2,0,0,1-2,2h0A2,2,0,0,1,54.07-89.74Zm0-9.24a2,2,0,0,1,2-2h0a2,2,0,0,1,2,2h0a2,2,0,0,1-2,2h0A2,2,0,0,1,54.07-99Zm0-9.24a2,2,0,0,1,2-2h0a2,2,0,0,1,2,2h0a2,2,0,0,1-2,2h0A2,2,0,0,1,54.07-108.22Zm0-9.25a2,2,0,0,1,2-2h0a2,2,0,0,1,2,2h0a2,2,0,0,1-2,2h0A2,2,0,0,1,54.07-117.47Zm0-9.24a2,2,0,0,1,2-2h0a2,2,0,0,1,2,2h0a2,2,0,0,1-2,2h0A2,2,0,0,1,54.07-126.71Zm0-9.24a2,2,0,0,1,2-2h0a2,2,0,0,1,2,2h0a2,2,0,0,1-2,2h0A2,2,0,0,1,54.07-135.95Zm0-9.25a2,2,0,0,1,2-2h0a2,2,0,0,1,2,2h0a2,2,0,0,1-2,2h0A2,2,0,0,1,54.07-145.2Zm0-9.21a2,2,0,0,1,2-2h0a2,2,0,0,1,2,2h0a2,2,0,0,1-2,2h0A2,2,0,0,1,54.07-154.41Zm0-9.24a2,2,0,0,1,2-2h0a2,2,0,0,1,2,2h0a2,2,0,0,1-2,2h0A2,2,0,0,1,54.07-163.65Zm0-9.24a2,2,0,0,1,2-2h0a2,2,0,0,1,2,2h0a2,2,0,0,1-2,2h0A2,2,0,0,1,54.07-172.89Zm0-9.25a2,2,0,0,1,2-2h0a2,2,0,0,1,2,2h0a2,2,0,0,1-2,2h0A2,2,0,0,1,54.07-182.14Zm0-9.24a2,2,0,0,1,2-2h0a2,2,0,0,1,2,2h0a2,2,0,0,1-2,2h0A2,2,0,0,1,54.07-191.38Zm0-9.24a2,2,0,0,1,2-2h0a2,2,0,0,1,2,2h0a2,2,0,0,1-2,2h0A2,2,0,0,1,54.07-200.62Zm0-9.25a2,2,0,0,1,2-2h0a2,2,0,0,1,2,2h0a2,2,0,0,1-2,2h0A2,2,0,0,1,54.07-209.87Zm0-9.24a2,2,0,0,1,2-2h0a2,2,0,0,1,2,2h0a2,2,0,0,1-2,2h0A2,2,0,0,1,54.07-219.11Zm0-9.24a2,2,0,0,1,2-2h0a2,2,0,0,1,2,2h0a2,2,0,0,1-2,2h0A2,2,0,0,1,54.07-228.35Zm0-9.25a2,2,0,0,1,2-2h0a2,2,0,0,1,2,2h0a2,2,0,0,1-2,2h0A2,2,0,0,1,54.07-237.6Zm0-9.24a2,2,0,0,1,2-2h0a2,2,0,0,1,2,2h0a2,2,0,0,1-2,2h0A2,2,0,0,1,54.07-246.84Zm0-9.24a2,2,0,0,1,2-2h0a2,2,0,0,1,2,2h0a2,2,0,0,1-2,2h0A2,2,0,0,1,54.07-256.08Zm0-9.25a2,2,0,0,1,2-2h0a2,2,0,0,1,2,2h0a2,2,0,0,1-2,2h0A2,2,0,0,1,54.07-265.33Zm0-9.24a2,2,0,0,1,2-2h0a2,2,0,0,1,2,2h0a2,2,0,0,1-2,2h0A2,2,0,0,1,54.07-274.57Zm0-9.21a2,2,0,0,1,2-2h0a2,2,0,0,1,2,2h0a2,2,0,0,1-2,2h0A2,2,0,0,1,54.07-283.78Zm0-9.24a2,2,0,0,1,2-2h0a2,2,0,0,1,2,2h0a2,2,0,0,1-2,2h0A2,2,0,0,1,54.07-293Zm0-9.25a2,2,0,0,1,2-2h0a2,2,0,0,1,2,2h0a2,2,0,0,1-2,2h0A2,2,0,0,1,54.07-302.27Zm0-9.24a2,2,0,0,1,2-2h0a2,2,0,0,1,2,2h0a2,2,0,0,1-2,2h0A2,2,0,0,1,54.07-311.51Zm0-9.24a2,2,0,0,1,2-2h0a2,2,0,0,1,2,2h0a2,2,0,0,1-2,2h0A2,2,0,0,1,54.07-320.75Z" transform="translate(-20.92 612)" fill="#fff"/><path d="M56.08-328a2,2,0,0,1-1.42-.58,2,2,0,0,1-.44-.65,1.81,1.81,0,0,1-.15-.78,2,2,0,0,1,.59-1.42,1.8,1.8,0,0,1,.65-.43,2.05,2.05,0,0,1,2.19.43,1.76,1.76,0,0,1,.43.65,2,2,0,0,1,.16.77,2.05,2.05,0,0,1-.16.78,1.84,1.84,0,0,1-.43.65A2,2,0,0,1,56.08-328Z" transform="translate(-20.92 612)" fill="#fff"/><polygon points="35.17 793.76 41.54 821.98 70.34 819.32 45.48 834.09 56.91 860.66 35.17 841.58 13.43 860.66 24.86 834.09 0 819.32 28.8 821.98 35.17 793.76" fill="#fff"/></g></g></g></svg>