<svg xmlns="http://www.w3.org/2000/svg" viewBox="0 0 278.4 409.14"><g id="Layer_2" data-name="Layer 2"><g id="Layer_2-2" data-name="Layer 2"><path d="M155.71,10a3.2,3.2,0,1,1-3.2-3.2A3.2,3.2,0,0,1,155.71,10ZM152.51,95a3.2,3.2,0,1,0,3.2,3.2A3.2,3.2,0,0,0,152.51,95Zm0-73.54a3.2,3.2,0,1,0,3.2,3.2A3.19,3.19,0,0,0,152.51,21.47ZM35.15,167.7a2,2,0,1,0,2,2A2,2,0,0,0,35.15,167.7ZM152.51,80.29a3.2,3.2,0,1,0,3.2,3.2A3.2,3.2,0,0,0,152.51,80.29Zm0-14.72a3.23,3.23,0,0,0-3.2,3.2,3.2,3.2,0,0,0,6.4,0A3.23,3.23,0,0,0,152.51,65.57Zm0-29.39a3.2,3.2,0,1,0,3.2,3.2A3.2,3.2,0,0,0,152.51,36.18Zm0,14.72a3.2,3.2,0,1,0,3.2,3.2A3.2,3.2,0,0,0,152.51,50.9ZM34.38,177.1a2,2,0,0,0-1.08,1.08,1.73,1.73,0,0,0-.16.78,1.81,1.81,0,0,0,.16.77,2,2,0,0,0,.43.65,1.89,1.89,0,0,0,.65.43,2.24,2.24,0,0,0,.77.15,2.06,2.06,0,0,0,1.43-.58,2,2,0,0,0,.43-.65,2.39,2.39,0,0,0,.15-.77,2.25,2.25,0,0,0-.15-.78,1.89,1.89,0,0,0-.43-.65A2.07,2.07,0,0,0,34.38,177.1Zm.77-74.1a2,2,0,1,0,2,2A2,2,0,0,0,35.15,103Zm0,55.46a2,2,0,1,0,2,2A2,2,0,0,0,35.15,158.46Zm0-37a2,2,0,1,0,2,2A2,2,0,0,0,35.15,121.49Zm0-27.73a2,2,0,0,0-2,2,2,2,0,1,0,2-2Zm0,18.48a2,2,0,1,0,2,2A2,2,0,0,0,35.15,112.24Zm0,37a2,2,0,1,0,2,2A2,2,0,0,0,35.15,149.22Zm0-9.25a2,2,0,1,0,2,2A2,2,0,0,0,35.15,140Zm0-9.24a2,2,0,1,0,2,2A2,2,0,0,0,35.15,130.73ZM234.15,4a2,2,0,1,0-2-2A2,2,0,0,0,234.15,4Zm0,18.49a2,2,0,1,0-2-2A2,2,0,0,0,234.15,22.51Zm0,9.24a2,2,0,1,0-2-2A2,2,0,0,0,234.15,31.75Zm0,9.24a2,2,0,1,0-2-2A2,2,0,0,0,234.15,41Zm0,9.24a2,2,0,1,0-2-2A2,2,0,0,0,234.15,50.23Zm0,9.25a2,2,0,1,0-2-2A2,2,0,0,0,234.15,59.48Zm6.39,48.2-6.37-28.22-6.37,28.22L199,105l24.87,14.77-11.44,26.57,21.74-19.08,21.74,19.08-11.43-26.57L269.34,105ZM35.15,84.55a2,2,0,0,0-2,2,2,2,0,1,0,4,0A2,2,0,0,0,35.15,84.55Zm199-71.29a2,2,0,1,0-2-2A2,2,0,0,0,234.15,13.26ZM152.51,168.6a3.2,3.2,0,1,0,3.2,3.2A3.2,3.2,0,0,0,152.51,168.6Zm0-29.44a3.2,3.2,0,1,0,3.2,3.2A3.2,3.2,0,0,0,152.51,139.16Zm0,14.72a3.2,3.2,0,1,0,3.2,3.2A3.2,3.2,0,0,0,152.51,153.88Zm81.64-85.16a2,2,0,1,0-2-2A2,2,0,0,0,234.15,68.72Zm-81.64,55.73a3.2,3.2,0,1,0,3.2,3.2A3.19,3.19,0,0,0,152.51,124.45Zm0-14.72a3.2,3.2,0,1,0,3.2,3.2A3.19,3.19,0,0,0,152.51,109.73Zm79.79-33a2,2,0,0,0,.43.65,1.89,1.89,0,0,0,.65.43,2.24,2.24,0,0,0,.77.15,2.06,2.06,0,0,0,1.43-.58,2,2,0,0,0,.43-.65,2.39,2.39,0,0,0,.15-.77,2.25,2.25,0,0,0-.15-.78,1.89,1.89,0,0,0-.43-.65,2.07,2.07,0,0,0-2.2-.43,2,2,0,0,0-1.08,1.08,1.73,1.73,0,0,0-.16.78A1.81,1.81,0,0,0,232.3,76.73ZM150.25,199a3.26,3.26,0,0,0-.94,2.27,3.6,3.6,0,0,0,.25,1.23,3.51,3.51,0,0,0,.69,1,3.24,3.24,0,0,0,2.26.94,3.37,3.37,0,0,0,1.23-.25,2.91,2.91,0,0,0,1-.69,3.22,3.22,0,0,0,0-4.53A3.34,3.34,0,0,0,150.25,199Zm2.26-15.65a3.2,3.2,0,1,0,3.2,3.2A3.2,3.2,0,0,0,152.51,183.32Zm-111,27.36-6.37-28.22L28.8,210.68,0,208l24.87,14.77L13.43,249.36l21.74-19.08,21.74,19.08L45.48,222.79,70.34,208ZM177.7,368.07A84.67,84.67,0,0,1,210.84,210a100.79,100.79,0,0,0-120.62,78.2c-9,43.09,11.93,88,50.75,108.78A100.8,100.8,0,0,0,278.4,354.78,84.66,84.66,0,0,1,177.7,368.07ZM35.15,66.06a2,2,0,1,0,2,2A2,2,0,0,0,35.15,66.06Zm0-37a2,2,0,1,0,2,2A2,2,0,0,0,35.15,29.09Zm0-9.25a2,2,0,1,0,2,2A2,2,0,0,0,35.15,19.84Zm0-9.24a2,2,0,1,0,2,2A2,2,0,0,0,35.15,10.6Zm0,27.73a2,2,0,1,0,2,2A2,2,0,0,0,35.15,38.33Zm0,9.24a2,2,0,1,0,2,2A2,2,0,0,0,35.15,47.57Zm0,27.73a2,2,0,1,0,2,2A2,2,0,0,0,35.15,75.3Zm0-73.94a2,2,0,1,0,2,2A2,2,0,0,0,35.15,1.36Zm0,55.46a2,2,0,1,0,2,2A2,2,0,0,0,35.15,56.82Z" fill="#fff"/></g></g></svg>