<svg xmlns="http://www.w3.org/2000/svg" viewBox="0 0 1081.41 536.87"><g id="Layer_2" data-name="Layer 2"><g id="Layer_2-2" data-name="Layer 2"><path d="M1081.41,358.26h-.26c.1-.19.17-.37.26-.55V340.28c-3.76-7.57-12.25-14-23.54-18a81.45,81.45,0,0,1-25.26-14.08,3.51,3.51,0,0,0-1.74-4.93L1030,289h-1.07l-.93,14.25a3.61,3.61,0,0,0-2.15,3.3,3.5,3.5,0,0,0,.43,1.63A81,81,0,0,1,1001,322.26c-15.42,5.53-25.7,15.41-25.7,26.71a18.73,18.73,0,0,0,.88,5.51h-4.41a48.93,48.93,0,0,0-41-63l-3.09-9.4c0-.1-.31-.18-.71-.25l-1.69-26.06c0-.09-.1-.15-.22-.15a.2.2,0,0,0-.22.15l-1.68,26.06c-.4.07-.68.15-.71.25l-3.1,9.4a49,49,0,0,0-39.84,30.7l-.52-27.45h2.58v-4.88h-2.67L878.17,255h2.93v-2.82h-1.71v-1h-1.76V238.56h1.76v-1.21h-2.77A7.52,7.52,0,0,0,877,235a8,8,0,0,0-3.85-6.85,12.59,12.59,0,0,1-3.59-3.38h0a.93.93,0,0,0-.26-1.52l-.21-3.25a3,3,0,0,0,.43,0,2.42,2.42,0,0,0,2.39-2.09,2.07,2.07,0,0,1-1.83,1.14,2,2,0,0,1-.87-3.86,2.41,2.41,0,0,0-.44,4.68l-.22,3.34a.94.94,0,0,0-.27,1.52,12.27,12.27,0,0,1-3.61,3.38,8,8,0,0,0-3.83,6.85,7.81,7.81,0,0,0,.36,2.39h-2.75v1.21h1.69v12.67h-1.69v1h-1.75V255h3L859,289.81h-2.69v4.88h2.59l-.72,38h-3.82v4.88h3.72l-.33,17.2H844.52A52.23,52.23,0,0,0,851,330c0-30.13-27.42-56.48-68.56-71.24-26.69-9.57-49.72-22.3-67.46-37.27A9.56,9.56,0,0,0,710.38,208l-2.46-38h-2.85l-2.46,38a9.57,9.57,0,0,0-4.54,13.48c-17.76,15-40.55,27.61-67.47,37.26a164.77,164.77,0,0,0-21.48,9.41V158.37h.71a3,3,0,0,0,3-3v-1.7a3,3,0,0,0-3-3h-4.07a22,22,0,0,0-10.33-22.4,35,35,0,0,1-10-9.31,2.59,2.59,0,0,0,.81-1.87,2.56,2.56,0,0,0-1.54-2.35l-.65-10.14h-.77l-.65,10.14a2.55,2.55,0,0,0-.73,4.22,34.69,34.69,0,0,1-10,9.31,22.12,22.12,0,0,0-10.33,22.4h-3.94a3,3,0,0,0-3,3v1.7a3,3,0,0,0,3,3h.59V228.2a107.42,107.42,0,0,0-45.33-57,167.93,167.93,0,0,1-47.86-44.62,12.31,12.31,0,0,0-3.49-20.27l-2.78-43.07A31.88,31.88,0,0,0,496.2,35.9,26.9,26.9,0,1,1,460.31,0a32,32,0,0,0-5.81,62.15l-2.86,44.14a12.3,12.3,0,0,0-3.47,20.28,166.72,166.72,0,0,1-47.88,44.61A107.12,107.12,0,0,0,354.19,294H328.72c.13-1.67.19-3.36.19-5.06a69.25,69.25,0,0,0-61.19-68.77l-4.38-13.31c0-.13-.43-.25-1-.34L260,169.61a.29.29,0,0,0-.31-.23.28.28,0,0,0-.31.23l-2.39,36.9c-.56.09-.95.21-1,.34l-4.38,13.31a69.31,69.31,0,0,0-58.11,89.26H169.88v10.4h11V373H156l-1.4-74.19h6.52v-8.58H154.4l-1.27-66.76h4.53v-8.57H153l-1.16-61.14H157v-5h-3v-1.66h-3.07V124.94h3.07v-2.13H149.1a13.92,13.92,0,0,0,.65-4.2,14.14,14.14,0,0,0-6.76-12,22.32,22.32,0,0,1-6.32-5.92h0A1.62,1.62,0,0,0,136.2,98l-.37-5.71a3.84,3.84,0,0,0,.76.07,4.25,4.25,0,0,0,4.2-3.69A3.56,3.56,0,1,1,136,83.88a4.22,4.22,0,0,0-.76,8.21L134.89,98a1.62,1.62,0,0,0-.46,2.68h0a21.64,21.64,0,0,1-6.35,5.92,14.16,14.16,0,0,0-6.73,12,13.62,13.62,0,0,0,.65,4.2h-4.85v2.13h3v22.24h-3v1.66h-3.06v5h5.2l-1.17,61.14h-4.72v8.57H118l-1.28,66.76H110v8.58h6.53L115.08,373H102.55V240.59h1.06a4.56,4.56,0,0,0,4.57-4.57v-2.57a4.56,4.56,0,0,0-4.57-4.58H97.43a35.12,35.12,0,0,0,.43-5.17,34,34,0,0,0-16.18-29,53.51,53.51,0,0,1-15.22-14.19,3.91,3.91,0,0,0-1.11-6.44l-1-15.45H63.19l-1,15.45a3.91,3.91,0,0,0-1.1,6.45,53.14,53.14,0,0,1-15.23,14.18,34,34,0,0,0-16.17,29,35.13,35.13,0,0,0,.42,5.17h-6a4.56,4.56,0,0,0-4.56,4.58V236a4.56,4.56,0,0,0,4.56,4.57H25V373H0V536.87H1081.41Zm-1038.85-53H30V269.82c0-9,2.66-16.6,6.27-18.91,3.62,2.31,6.27,9.88,6.27,18.91Zm37.1,0H47.89V266.06a21.72,21.72,0,0,1,15.88-20.91,21.72,21.72,0,0,1,15.89,20.91Zm18,0H85.09V269.82c0-9,2.65-16.6,6.27-18.91,3.62,2.31,6.27,9.88,6.27,18.91Zm28.11-158.09h-3V129a1.2,1.2,0,0,1,1.2-1.21h.59a1.2,1.2,0,0,1,1.2,1.21Zm5.63,0h-3V129a1.2,1.2,0,0,1,1.2-1.2h.6a1.2,1.2,0,0,1,1.2,1.2Zm5.63,0h-3V129a1.2,1.2,0,0,1,1.2-1.2h.59A1.21,1.21,0,0,1,137,129Zm5.62,0h-3V129a1.21,1.21,0,0,1,1.21-1.2h.58a1.21,1.21,0,0,1,1.21,1.2Zm5.62,0h-3V129a1.21,1.21,0,0,1,1.21-1.2H147a1.2,1.2,0,0,1,1.2,1.2Zm421.53,53.64h-8.23V177.54c0-5.91,1.73-10.89,4.11-12.4,2.38,1.51,4.12,6.49,4.12,12.4Zm24.34,0H573.25V175.09a14.27,14.27,0,0,1,10.43-13.73,14.27,14.27,0,0,1,10.43,13.73Zm11.79,0h-8.23V177.54c0-5.91,1.74-10.89,4.11-12.4,2.38,1.51,4.12,6.49,4.12,12.4Zm257.43,50.41h-1.71V240.86a.69.69,0,0,1,.68-.69h.33a.69.69,0,0,1,.7.69Zm3.2,0h-1.7V240.86a.68.68,0,0,1,.68-.69h.33a.69.69,0,0,1,.69.69Zm3.2,0H868V240.86a.69.69,0,0,1,.69-.69h.34a.69.69,0,0,1,.68.69Zm3.2,0h-1.7V240.86a.68.68,0,0,1,.68-.69h.34a.68.68,0,0,1,.68.69Zm3.2,0h-1.7V240.86a.69.69,0,0,1,.69-.69h.33a.68.68,0,0,1,.68.69Z" fill="#fafafa"/></g></g></svg>