<svg xmlns="http://www.w3.org/2000/svg" xmlns:xlink="http://www.w3.org/1999/xlink" viewBox="0 0 70 64.45"><defs><linearGradient id="linear-gradient" x1="42.42" y1="66.03" x2="24.69" y2="-4.3" gradientUnits="userSpaceOnUse"><stop offset="0" stop-color="#ef006b"/><stop offset="1" stop-color="#fb9a61"/></linearGradient></defs><g id="Layer_2" data-name="Layer 2"><g id="Layer_1-2" data-name="Layer 1"><path d="M14.92,0C6.81,0,1.29,5.89,1.29,14.18c0,7.92,5.34,13.44,12.89,13.44A12.23,12.23,0,0,0,19,26.55c-.91,12.7-7.74,22.38-19,28.88l5,9C21.54,56,31.49,40.7,31.49,22.28,31.49,8.29,24.49,0,14.92,0Z" fill="url(#linear-gradient)"/><path d="M53.43,0C45.32,0,39.8,5.89,39.8,14.18c0,7.92,5.34,13.44,12.89,13.44a12.32,12.32,0,0,0,4.86-1.07c-.92,12.7-7.75,22.38-19,28.88l5,9C60.06,56,70,40.7,70,22.28,70,8.29,63,0,53.43,0Z" fill="url(#linear-gradient)"/></g></g></svg>